<svg width="173" height="96" viewBox="0 0 173 96" fill="none" xmlns="http://www.w3.org/2000/svg">
<g clip-path="url(#clip0_2579_5265)">
<rect width="173" height="96" fill="white"/>
<path fill-rule="evenodd" clip-rule="evenodd" d="M84.2115 4.24073C85.5493 2.98095 87.6368 2.98096 88.9746 4.24073L134.091 46.725C136.381 48.8814 134.855 52.728 131.709 52.728H120.904V90.443C120.904 93.5128 118.415 96.0013 115.346 96.0013H97.8524V83.0852C97.8524 76.8299 92.7815 71.7589 86.5262 71.7589C80.2708 71.7589 75.1999 76.8299 75.1999 83.0852V96.0013H57.7097C54.64 96.0013 52.1514 93.5128 52.1514 90.443V52.728H41.477C38.3315 52.728 36.8055 48.8814 39.0954 46.725L84.2115 4.24073Z" fill="url(#paint0_linear_2579_5265)" fill-opacity="0.85"/>
<g filter="url(#filter0_bd_2579_5265)">
<path fill-rule="evenodd" clip-rule="evenodd" d="M120.638 65.8926C139.44 65.8926 154.683 51.142 154.683 32.9463C154.683 14.7506 139.44 0 120.638 0C101.836 0 86.5938 14.7506 86.5938 32.9463C86.5938 39.4679 88.5518 45.5469 91.93 50.6629L89.4642 61.5391C89.2834 62.3367 90.0068 63.0451 90.8005 62.8476L101.486 60.1886C106.943 63.7882 113.536 65.8926 120.638 65.8926Z" fill="#A6FF87" fill-opacity="0.19" shape-rendering="crispEdges"/>
</g>
<g filter="url(#filter1_d_2579_5265)">
<path d="M104 33.6653L114.592 44.2569L137.288 21.5605" stroke="white" stroke-width="7.56544" stroke-linecap="round" stroke-linejoin="round" stroke-dasharray="0.76 0.76"/>
</g>
</g>
<defs>
<filter id="filter0_bd_2579_5265" x="72.698" y="-13.8957" width="95.8812" height="93.684" filterUnits="userSpaceOnUse" color-interpolation-filters="sRGB">
<feFlood flood-opacity="0" result="BackgroundImageFix"/>
<feGaussianBlur in="BackgroundImage" stdDeviation="6.94785"/>
<feComposite in2="SourceAlpha" operator="in" result="effect1_backgroundBlur_2579_5265"/>
<feColorMatrix in="SourceAlpha" type="matrix" values="0 0 0 0 0 0 0 0 0 0 0 0 0 0 0 0 0 0 127 0" result="hardAlpha"/>
<feOffset dy="0.756544"/>
<feGaussianBlur stdDeviation="2.60544"/>
<feComposite in2="hardAlpha" operator="out"/>
<feColorMatrix type="matrix" values="0 0 0 0 0 0 0 0 0 0 0 0 0 0 0 0 0 0 0.4 0"/>
<feBlend mode="normal" in2="effect1_backgroundBlur_2579_5265" result="effect2_dropShadow_2579_5265"/>
<feBlend mode="normal" in="SourceGraphic" in2="effect2_dropShadow_2579_5265" result="shape"/>
</filter>
<filter id="filter1_d_2579_5265" x="97.4396" y="16.3878" width="46.4098" height="35.821" filterUnits="userSpaceOnUse" color-interpolation-filters="sRGB">
<feFlood flood-opacity="0" result="BackgroundImageFix"/>
<feColorMatrix in="SourceAlpha" type="matrix" values="0 0 0 0 0 0 0 0 0 0 0 0 0 0 0 0 0 0 127 0" result="hardAlpha"/>
<feOffset dy="1.38957"/>
<feGaussianBlur stdDeviation="1.38957"/>
<feComposite in2="hardAlpha" operator="out"/>
<feColorMatrix type="matrix" values="0 0 0 0 0 0 0 0 0 0 0 0 0 0 0 0 0 0 0.25 0"/>
<feBlend mode="normal" in2="BackgroundImageFix" result="effect1_dropShadow_2579_5265"/>
<feBlend mode="normal" in="SourceGraphic" in2="effect1_dropShadow_2579_5265" result="shape"/>
</filter>
<linearGradient id="paint0_linear_2579_5265" x1="86.593" y1="3.2959" x2="86.593" y2="96.0013" gradientUnits="userSpaceOnUse">
<stop offset="0.380208" stop-color="#1FCE51"/>
<stop offset="0.9999" stop-color="#30D760" stop-opacity="0.65"/>
<stop offset="1" stop-color="#14DE4E" stop-opacity="0.25"/>
</linearGradient>
<clipPath id="clip0_2579_5265">
<rect width="173" height="96" fill="white"/>
</clipPath>
</defs>
</svg>
