<svg width="62" height="14" viewBox="0 0 62 14" fill="none" xmlns="http://www.w3.org/2000/svg">
<path fill-rule="evenodd" clip-rule="evenodd" d="M3.11608 0C2.53477 0 1.93815 0.0813262 1.51572 0.491804C1.0879 0.907516 1 1.5019 1 2.08148V12.0996C1 12.62 1.21614 13.051 1.58601 13.3343C1.93308 13.6001 2.36168 13.6966 2.75273 13.6966C3.14378 13.6966 3.57238 13.6001 3.91945 13.3343C4.28932 13.051 4.50546 12.62 4.50546 12.0996V8.8519H6.35163C7.92716 8.8519 9.16947 8.37746 10.0212 7.55173C10.8716 6.72734 11.2707 5.61232 11.2707 4.4519V4.20967C11.2707 3.05174 10.9039 1.97088 10.0469 1.18597C9.1968 0.407402 7.95163 0 6.35163 0H3.11608ZM1.64539 9.91002C1.64538 9.91002 1.64538 9.91003 1.64538 9.91003V12.0996C1.64538 12.1407 1.6474 12.1803 1.65135 12.2186C1.64741 12.1803 1.64539 12.1407 1.64539 12.0996V9.91002ZM4.50546 3.14211H6.24781C6.84409 3.14211 7.215 3.23341 7.42717 3.38011C7.58778 3.49116 7.74793 3.69629 7.74793 4.22697V4.4173C7.74793 5.00576 7.5774 5.26221 7.38588 5.40431C7.15213 5.57773 6.74001 5.69249 6.05749 5.69249H4.50546V3.14211ZM22.7152 11.5286C22.7244 11.5453 22.733 11.562 22.7412 11.5787L22.7152 11.5286ZM13.8564 12.0996C13.8564 12.1407 13.8584 12.1803 13.8624 12.2186C13.8584 12.1803 13.8564 12.1407 13.8564 12.0996V2.08154C13.8564 0.991485 14.2198 0.645437 15.3271 0.645437H18.58C20.4281 0.645437 21.7175 1.36643 22.292 2.58078C21.7175 1.3664 20.4281 0.645377 18.58 0.645377H15.3271C14.2198 0.645377 13.8564 0.991425 13.8564 2.08148V12.0996ZM22.5936 6.85525C22.2859 7.30219 21.8893 7.66295 21.43 7.94203L23.2795 11.2153L23.2818 11.2195C23.5143 11.6458 23.5688 12.1158 23.4177 12.5497C23.2689 12.9771 22.9446 13.3011 22.5465 13.4937L22.5388 13.4974L22.531 13.5009C22.1828 13.6582 21.7571 13.7554 21.3314 13.6773C20.878 13.5942 20.4774 13.3192 20.2376 12.8438L18.0598 8.67887H16.7165V12.0996C16.7165 12.62 16.5003 13.051 16.1305 13.3343C15.7834 13.6001 15.3548 13.6966 14.9638 13.6966C14.5727 13.6966 14.1441 13.6001 13.797 13.3343C13.4272 13.051 13.211 12.62 13.211 12.0996V2.08148C13.211 1.5019 13.2989 0.907516 13.7267 0.491804C14.1492 0.0813262 14.7458 0 15.3271 0H18.58C19.9722 0 21.153 0.37699 21.9938 1.12588C22.8434 1.88252 23.2741 2.9554 23.2741 4.19237V4.50381C23.2741 5.41331 23.0402 6.20659 22.5936 6.85525ZM16.7165 3.14211H18.2858C18.9597 3.14211 19.3176 3.28208 19.5016 3.43656C19.6627 3.57178 19.7859 3.79925 19.7859 4.24427V4.46921C19.7859 4.89964 19.6673 5.10673 19.4994 5.23577C19.2932 5.3943 18.8827 5.53677 18.0955 5.53677H16.7165V3.14211ZM41.6247 0C41.0434 0 40.4468 0.0813262 40.0243 0.491804C39.5965 0.907516 39.5086 1.5019 39.5086 2.08148V12.0996C39.5086 12.62 39.7248 13.051 40.0946 13.3343C40.4417 13.6001 40.8703 13.6966 41.2614 13.6966C41.6524 13.6966 42.081 13.6001 42.4281 13.3343C42.7979 13.051 43.0141 12.62 43.0141 12.0996V8.8519H44.8602C46.4358 8.8519 47.6781 8.37746 48.5299 7.55173C49.3803 6.72734 49.7793 5.61232 49.7793 4.4519V4.20967C49.7793 3.05174 49.4125 1.97088 48.5555 1.18597C47.7054 0.407402 46.4603 0 44.8602 0H41.6247ZM43.0141 3.14211H44.7564C45.3527 3.14211 45.7236 3.23341 45.9358 3.38011C46.0964 3.49116 46.2566 3.69629 46.2566 4.22697V4.4173C46.2566 5.00576 46.086 5.26221 45.8945 5.40431C45.6608 5.57773 45.2486 5.69249 44.5661 5.69249H43.0141V3.14211ZM16.0711 6.18214V6.1822H18.0955C19.7738 6.1822 20.4313 5.59392 20.4313 4.46927V4.24433C20.4313 4.24431 20.4313 4.24429 20.4313 4.24427V4.46921C20.4313 5.59386 19.7738 6.18214 18.0955 6.18214H16.0711ZM40.154 2.08148V12.0996C40.154 12.1407 40.156 12.1803 40.16 12.2186C40.156 12.1803 40.154 12.1407 40.154 12.0996V2.08154C40.154 2.08152 40.154 2.0815 40.154 2.08148ZM48.3666 1.91685C47.6904 1.12913 46.5474 0.645437 44.8603 0.645437H41.6247C40.6558 0.645437 40.2565 0.910365 40.1718 1.7068C40.2565 0.91032 40.6558 0.645377 41.6247 0.645377H44.8602C46.5474 0.645377 47.6904 1.1291 48.3666 1.91685ZM42.3687 6.33786L42.3687 6.33792H44.5661C46.0195 6.33792 46.9019 5.87076 46.9019 4.41736V4.22703C46.9019 4.22701 46.9019 4.22699 46.9019 4.22697V4.4173C46.9019 5.8707 46.0195 6.33786 44.5661 6.33786H42.3687Z" fill="#43C368"/>
<path d="M57.1095 5.31657C58.6039 5.62082 59.7452 6.08992 60.5169 6.79975C61.3172 7.53575 61.6576 8.47181 61.6576 9.54787V9.70359C61.6576 11.0352 61.2043 12.1501 60.2528 12.9145C59.3248 13.6601 58.0117 13.9998 56.4271 13.9998C54.9095 13.9998 53.3332 13.5787 52.2967 12.9333L52.2958 12.9327C51.869 12.666 51.606 12.2686 51.537 11.8166C51.4704 11.3798 51.593 10.9506 51.8181 10.6004L51.8197 10.598L51.8212 10.5957C52.0521 10.2433 52.3794 9.96439 52.8007 9.86007C53.2231 9.75547 53.6432 9.8504 54.0115 10.0591L54.0131 10.0601L54.0148 10.061C54.7303 10.4721 55.6057 10.7192 56.5309 10.7192C57.2538 10.7192 57.6671 10.5718 57.8828 10.4157C58.071 10.2795 58.1521 10.1084 58.1521 9.87662V9.7555C58.1521 9.46788 58.0658 9.30098 57.8526 9.14414C57.5875 8.94897 57.113 8.76704 56.3024 8.60657C54.841 8.31949 53.6428 7.95594 52.8139 7.29179C51.9284 6.58226 51.5426 5.60002 51.5426 4.30525V4.18413C51.5426 3.03203 52.0105 1.97108 52.9135 1.20824C53.8093 0.451396 55.0852 0.0263672 56.652 0.0263672C57.9662 0.0263672 59.1126 0.245001 60.0771 0.737056L60.0787 0.737872L60.0803 0.738697C60.9248 1.17555 61.1689 2.15459 60.7317 2.95189C60.5301 3.3279 60.2257 3.61676 59.8284 3.74651C59.4352 3.87488 59.0334 3.8207 58.6817 3.66997C58.0439 3.39662 57.5261 3.28959 56.6866 3.28959C55.3422 3.28959 55.0308 3.94744 55.0308 4.14952V4.25334C55.0308 4.41175 55.0534 4.49551 55.0775 4.54643C55.0985 4.59087 55.1399 4.65185 55.2543 4.72963C55.5205 4.9106 56.0505 5.09952 57.1095 5.31657Z" fill="#43C368"/>
<path fill-rule="evenodd" clip-rule="evenodd" d="M31.4516 0.0263672C29.6634 0.0263672 28.1397 0.503079 27.0732 1.64862C26.0151 2.78524 25.5117 4.46926 25.5117 6.65837V7.36777C25.5117 9.55688 26.0151 11.2409 27.0732 12.3775C28.1397 13.5231 29.6634 13.9998 31.4516 13.9998C33.2398 13.9998 34.7636 13.5231 35.83 12.3775C36.8882 11.2409 37.3915 9.55688 37.3915 7.36777V6.65837C37.3915 4.46926 36.8882 2.78524 35.83 1.64862C34.7636 0.503079 33.2398 0.0263672 31.4516 0.0263672ZM33.2376 3.9919C32.8962 3.56408 32.3618 3.3415 31.4516 3.3415C30.5414 3.3415 30.0071 3.56408 29.6657 3.9919C29.293 4.45894 29.0345 5.30777 29.0345 6.8314V7.19475C29.0345 8.71837 29.293 9.5672 29.6657 10.0342C30.0071 10.4621 30.5414 10.6846 31.4516 10.6846C32.3618 10.6846 32.8962 10.4621 33.2376 10.0342C33.6103 9.5672 33.8688 8.71837 33.8688 7.19475V6.8314C33.8688 5.30777 33.6103 4.45894 33.2376 3.9919Z" fill="#43C368"/>
<g filter="url(#filter0_d_2414_7351)">
<path fill-rule="evenodd" clip-rule="evenodd" d="M21.426 7.96839C21.8853 7.68932 22.2819 7.32855 22.5896 6.88162C23.0363 6.23295 23.2701 5.43968 23.2701 4.53018V4.21873C23.2701 2.98177 22.8394 1.90889 21.9899 1.15224C21.149 0.403357 19.9682 0.0263672 18.576 0.0263672H15.3231C14.7418 0.0263672 14.1452 0.107693 13.7227 0.518171C13.2949 0.933883 13.207 1.52826 13.207 2.10784V12.1259C13.207 9.73869 14.7609 8.70524 16.7125 8.70524H18.0558C18.9558 8.70524 20.5311 8.44107 21.426 7.96839ZM18.2818 3.16848H16.7125V5.56313H18.0915C18.8787 5.56313 19.2892 5.42066 19.4954 5.26214C19.6633 5.1331 19.7819 4.92601 19.7819 4.49557V4.27064C19.7819 3.82561 19.6587 3.59814 19.4976 3.46293C19.3136 3.30844 18.9557 3.16848 18.2818 3.16848Z" fill="#43C368"/>
</g>
<g filter="url(#filter1_d_2414_7351)">
<path fill-rule="evenodd" clip-rule="evenodd" d="M3.11608 0.696159C2.00873 0.696159 1.64538 1.04221 1.64538 2.13226V9.96081C2.16625 9.31836 2.95889 9.02198 3.86008 8.93292V8.2573H6.35163C9.24113 8.2573 10.6253 6.52706 10.6253 4.50268V4.26045C10.6253 2.21877 9.34494 0.696159 6.35163 0.696159H3.11608ZM6.05749 6.38865C7.51089 6.38865 8.39331 5.92148 8.39331 4.46808V4.27775C8.39331 2.91086 7.51089 2.54751 6.24781 2.54751H3.86008V6.38865H6.05749Z" fill="#43C368"/>
<path fill-rule="evenodd" clip-rule="evenodd" d="M3.11608 0.0507812C2.53477 0.0507812 1.93815 0.132107 1.51572 0.542585C1.0879 0.958297 1 1.55268 1 2.13226V12.1503C1 11.1682 1.24065 10.46 1.64538 9.96081V2.13226C1.64538 1.04221 2.00873 0.696159 3.11608 0.696159H6.35163C9.34494 0.696159 10.6253 2.21877 10.6253 4.26045V4.50268C10.6253 6.52706 9.24113 8.2573 6.35163 8.2573H3.86008V8.93292C4.07001 8.91218 4.28582 8.90268 4.50546 8.90268H6.35163C7.92716 8.90268 9.16948 8.42824 10.0212 7.60252C10.8716 6.77812 11.2707 5.6631 11.2707 4.50268V4.26045C11.2707 3.10252 10.9039 2.02166 10.0469 1.23675C9.1968 0.458184 7.95163 0.0507812 6.35163 0.0507812H3.11608ZM4.50546 3.19289H6.24781C6.84409 3.19289 7.215 3.28419 7.42718 3.43089C7.58778 3.54194 7.74793 3.74707 7.74793 4.27775V4.46808C7.74793 5.05654 7.5774 5.31299 7.38588 5.45509C7.15213 5.62851 6.74001 5.74327 6.05749 5.74327H4.50546V3.19289ZM3.86008 6.38865V2.54751H6.24781C7.51089 2.54751 8.39331 2.91086 8.39331 4.27775V4.46808C8.39331 5.92148 7.51089 6.38865 6.05749 6.38865H3.86008Z" fill="#43C368"/>
</g>
<g filter="url(#filter2_d_2414_7351)">
<path fill-rule="evenodd" clip-rule="evenodd" d="M41.6122 0.696159C40.5048 0.696159 40.1415 1.04221 40.1415 2.13226V9.96081C40.6623 9.31836 41.455 9.02198 42.3562 8.93292V8.2573H44.8477C47.7372 8.2573 49.1214 6.52706 49.1214 4.50268V4.26045C49.1214 2.21877 47.841 0.696159 44.8477 0.696159H41.6122ZM44.5536 6.38865C46.007 6.38865 46.8894 5.92148 46.8894 4.46808V4.27775C46.8894 2.91086 46.007 2.54751 44.7439 2.54751H42.3562V6.38865H44.5536Z" fill="#43C368"/>
<path fill-rule="evenodd" clip-rule="evenodd" d="M41.6122 0.0507812C41.0309 0.0507812 40.4342 0.132107 40.0118 0.542585C39.584 0.958297 39.4961 1.55268 39.4961 2.13226V12.1503C39.4961 11.1682 39.7367 10.46 40.1415 9.96081V2.13226C40.1415 1.04221 40.5048 0.696159 41.6122 0.696159H44.8477C47.841 0.696159 49.1214 2.21877 49.1214 4.26045V4.50268C49.1214 6.52706 47.7372 8.2573 44.8477 8.2573H42.3562V8.93292C42.5661 8.91218 42.7819 8.90268 43.0016 8.90268H44.8477C46.4233 8.90268 47.6656 8.42824 48.5173 7.60252C49.3677 6.77812 49.7668 5.6631 49.7668 4.50268V4.26045C49.7668 3.10252 49.4 2.02166 48.543 1.23675C47.6929 0.458184 46.4477 0.0507812 44.8477 0.0507812H41.6122ZM43.0016 3.19289H44.7439C45.3402 3.19289 45.7111 3.28419 45.9233 3.43089C46.0839 3.54194 46.244 3.74707 46.244 4.27775V4.46808C46.244 5.05654 46.0735 5.31299 45.882 5.45509C45.6482 5.62851 45.2361 5.74327 44.5536 5.74327H43.0016V3.19289ZM42.3562 6.38865V2.54751H44.7439C46.007 2.54751 46.8894 2.91086 46.8894 4.27775V4.46808C46.8894 5.92148 46.007 6.38865 44.5536 6.38865H42.3562Z" fill="#43C368"/>
</g>
<defs>
<filter id="filter0_d_2414_7351" x="12.3465" y="0.0263672" width="11.7835" height="13.8206" filterUnits="userSpaceOnUse" color-interpolation-filters="sRGB">
<feFlood flood-opacity="0" result="BackgroundImageFix"/>
<feColorMatrix in="SourceAlpha" type="matrix" values="0 0 0 0 0 0 0 0 0 0 0 0 0 0 0 0 0 0 127 0" result="hardAlpha"/>
<feOffset dy="0.860503"/>
<feGaussianBlur stdDeviation="0.430251"/>
<feComposite in2="hardAlpha" operator="out"/>
<feColorMatrix type="matrix" values="0 0 0 0 0 0 0 0 0 0 0 0 0 0 0 0 0 0 0.25 0"/>
<feBlend mode="normal" in2="BackgroundImageFix" result="effect1_dropShadow_2414_7351"/>
<feBlend mode="normal" in="SourceGraphic" in2="effect1_dropShadow_2414_7351" result="shape"/>
</filter>
<filter id="filter1_d_2414_7351" x="0.139497" y="0.0507812" width="11.9905" height="13.8206" filterUnits="userSpaceOnUse" color-interpolation-filters="sRGB">
<feFlood flood-opacity="0" result="BackgroundImageFix"/>
<feColorMatrix in="SourceAlpha" type="matrix" values="0 0 0 0 0 0 0 0 0 0 0 0 0 0 0 0 0 0 127 0" result="hardAlpha"/>
<feOffset dy="0.860503"/>
<feGaussianBlur stdDeviation="0.430251"/>
<feComposite in2="hardAlpha" operator="out"/>
<feColorMatrix type="matrix" values="0 0 0 0 0 0 0 0 0 0 0 0 0 0 0 0 0 0 0.25 0"/>
<feBlend mode="normal" in2="BackgroundImageFix" result="effect1_dropShadow_2414_7351"/>
<feBlend mode="normal" in="SourceGraphic" in2="effect1_dropShadow_2414_7351" result="shape"/>
</filter>
<filter id="filter2_d_2414_7351" x="38.6356" y="0.0507812" width="11.9905" height="13.8206" filterUnits="userSpaceOnUse" color-interpolation-filters="sRGB">
<feFlood flood-opacity="0" result="BackgroundImageFix"/>
<feColorMatrix in="SourceAlpha" type="matrix" values="0 0 0 0 0 0 0 0 0 0 0 0 0 0 0 0 0 0 127 0" result="hardAlpha"/>
<feOffset dy="0.860503"/>
<feGaussianBlur stdDeviation="0.430251"/>
<feComposite in2="hardAlpha" operator="out"/>
<feColorMatrix type="matrix" values="0 0 0 0 0 0 0 0 0 0 0 0 0 0 0 0 0 0 0.25 0"/>
<feBlend mode="normal" in2="BackgroundImageFix" result="effect1_dropShadow_2414_7351"/>
<feBlend mode="normal" in="SourceGraphic" in2="effect1_dropShadow_2414_7351" result="shape"/>
</filter>
</defs>
</svg>
