<svg width="161" height="157" viewBox="0 0 161 157" fill="none" xmlns="http://www.w3.org/2000/svg">
<path fill-rule="evenodd" clip-rule="evenodd" d="M75.1751 10.7864C76.6854 9.36417 79.0421 9.36417 80.5525 10.7864L131.486 58.7492C134.072 61.1837 132.349 65.5264 128.798 65.5264H115.875V107.908C115.875 111.374 113.065 114.183 109.6 114.183H90.4552V100.322C90.4552 93.282 84.7486 87.5754 77.709 87.5754C70.6695 87.5754 64.9628 93.282 64.9628 100.322V114.183H45.6184C42.1528 114.183 39.3433 111.374 39.3433 107.908V65.5264H26.9298C23.3787 65.5264 21.6558 61.1837 24.2411 58.7492L75.1751 10.7864Z" fill="url(#paint0_linear_3514_5174)" fill-opacity="0.85"/>
<g filter="url(#filter0_bd_3514_5174)">
<path fill-rule="evenodd" clip-rule="evenodd" d="M116.294 80.3898C137.521 80.3898 154.729 63.737 154.729 43.1949C154.729 22.6527 137.521 6 116.294 6C95.0672 6 77.8594 22.6527 77.8594 43.1949C77.8594 50.5566 80.0694 57.4189 83.8824 63.1942L81.0985 75.4742C80.8943 76.3747 81.7109 77.1744 82.607 76.9514L94.6709 73.9495C100.831 78.0137 108.276 80.3898 116.294 80.3898Z" fill="#87ADFF" fill-opacity="0.19" shape-rendering="crispEdges"/>
</g>
<g filter="url(#filter1_d_3514_5174)">
<path d="M97.5078 44.0065L109.465 55.964L135.088 30.3408" stroke="white" stroke-width="8.54105" stroke-linecap="round" stroke-linejoin="round" stroke-dasharray="0.85 0.85"/>
</g>
<path fill-rule="evenodd" clip-rule="evenodd" d="M34.4154 135.489C33.5222 135.489 32.6055 135.614 31.9565 136.245C31.2991 136.884 31.1641 137.797 31.1641 138.687V154.08C31.1641 154.88 31.4962 155.542 32.0645 155.978C32.5977 156.386 33.2563 156.534 33.8571 156.534C34.458 156.534 35.1165 156.386 35.6498 155.978C36.2181 155.542 36.5502 154.88 36.5502 154.08V149.09H39.3869C41.8077 149.09 43.7165 148.361 45.0253 147.093C46.3319 145.826 46.9451 144.113 46.9451 142.33V141.957C46.9451 140.178 46.3814 138.518 45.0646 137.312C43.7585 136.115 41.8453 135.489 39.3869 135.489H34.4154ZM32.157 150.714C32.1566 150.715 32.1561 150.716 32.1557 150.716V154.08C32.1557 154.84 32.607 155.284 33.2154 155.458C32.6077 155.284 32.157 154.84 32.157 154.081V150.714ZM36.5502 140.317H39.2274C40.1436 140.317 40.7135 140.457 41.0395 140.683C41.2862 140.853 41.5323 141.169 41.5323 141.984V142.276C41.5323 143.181 41.2703 143.575 40.976 143.793C40.6169 144.059 39.9836 144.236 38.9349 144.236H36.5502V140.317ZM62.4494 155.498C62.1063 155.401 61.8069 155.172 61.6067 154.772L57.9645 147.807C57.9641 147.807 57.9638 147.807 57.9634 147.807L61.6053 154.772C61.8058 155.173 62.1058 155.401 62.4494 155.498ZM51.9777 155.458C51.37 155.284 50.9194 154.84 50.9194 154.081V138.688C50.9194 137.013 51.4777 136.481 53.1791 136.481H58.1772C59.0568 136.481 59.8541 136.588 60.5619 136.79C59.8538 136.587 59.056 136.481 58.1758 136.481H53.1778C51.4763 136.481 50.918 137.013 50.918 138.687V154.08C50.918 154.84 51.3693 155.284 51.9777 155.458ZM64.3429 146.022C63.87 146.709 63.2606 147.263 62.555 147.692L65.3967 152.722L65.4002 152.728C65.7575 153.383 65.8412 154.105 65.6091 154.772C65.3804 155.429 64.8822 155.926 64.2704 156.222L64.2586 156.228L64.2466 156.234C63.7116 156.475 63.0575 156.625 62.4035 156.505C61.7068 156.377 61.0913 155.954 60.7229 155.224L57.3765 148.824H55.3126V154.08C55.3126 154.88 54.9805 155.542 54.4122 155.978C53.8789 156.386 53.2203 156.534 52.6195 156.534C52.0187 156.534 51.3601 156.386 50.8268 155.978C50.2585 155.542 49.9264 154.88 49.9264 154.08V138.687C49.9264 137.797 50.0615 136.884 50.7188 136.245C51.3679 135.614 52.2846 135.489 53.1778 135.489H58.1758C60.3151 135.489 62.1293 136.069 63.4213 137.219C64.7267 138.382 65.3884 140.03 65.3884 141.931V142.409C65.3884 143.807 65.0291 145.026 64.3429 146.022ZM55.3126 140.317H57.7239C58.7593 140.317 59.3092 140.532 59.5919 140.77C59.8394 140.977 60.0288 141.327 60.0288 142.011V142.356C60.0288 143.018 59.8465 143.336 59.5886 143.534C59.2718 143.778 58.641 143.997 57.4314 143.997H55.3126V140.317ZM93.5843 135.489C92.6911 135.489 91.7744 135.614 91.1253 136.245C90.468 136.884 90.3329 137.797 90.3329 138.687V154.08C90.3329 154.88 90.665 155.542 91.2333 155.978C91.7666 156.386 92.4251 156.534 93.026 156.534C93.6268 156.534 94.2854 156.386 94.8187 155.978C95.387 155.542 95.7191 154.88 95.7191 154.08V149.09H98.5557C100.977 149.09 102.885 148.361 104.194 147.093C105.501 145.826 106.114 144.113 106.114 142.33V141.957C106.114 140.178 105.55 138.518 104.233 137.312C102.927 136.115 101.014 135.489 98.5557 135.489H93.5843ZM95.7191 140.317H98.3962C99.3124 140.317 99.8823 140.457 100.208 140.683C100.455 140.853 100.701 141.169 100.701 141.984V142.276C100.701 143.181 100.439 143.575 100.145 143.793C99.7857 144.059 99.1525 144.236 98.1038 144.236H95.7191V140.317ZM54.3223 144.988V144.989H57.4328C60.0115 144.989 61.0218 144.085 61.0218 142.357V142.011C61.0218 140.72 60.4749 139.875 59.2753 139.519C60.474 139.875 61.0204 140.72 61.0204 142.011V142.356C61.0204 144.084 60.0102 144.988 57.4314 144.988H54.3223ZM93.5843 136.481C91.8828 136.481 91.3245 137.013 91.3245 138.687V154.08C91.3245 154.84 91.7758 155.284 92.3842 155.458C91.7765 155.284 91.3259 154.84 91.3259 154.081V138.688C91.3259 137.013 91.8842 136.481 93.5856 136.481H98.5571C99.5626 136.481 100.442 136.593 101.203 136.801C100.442 136.593 99.5618 136.481 98.5557 136.481H93.5843ZM94.7288 145.227V145.228H98.1051C100.338 145.228 101.694 144.51 101.694 142.277V141.984C101.694 140.588 101.095 139.873 100.123 139.551C101.094 139.874 101.693 140.588 101.693 141.984V142.276C101.693 144.51 100.337 145.227 98.1038 145.227H94.7288Z" fill="#5087FF"/>
<path d="M117.378 143.658C119.675 144.125 121.428 144.846 122.614 145.937C123.844 147.068 124.367 148.506 124.367 150.159V150.398C124.367 152.444 123.67 154.158 122.208 155.332C120.782 156.478 118.765 157 116.33 157C113.998 157 111.576 156.353 109.984 155.361L109.982 155.36C109.326 154.95 108.922 154.34 108.816 153.645C108.714 152.974 108.902 152.314 109.248 151.776L109.251 151.773L109.253 151.769C109.608 151.228 110.111 150.799 110.758 150.639C111.407 150.478 112.052 150.624 112.618 150.945L112.621 150.946L112.623 150.948C113.723 151.579 115.068 151.959 116.489 151.959C117.6 151.959 118.235 151.732 118.567 151.493C118.856 151.283 118.98 151.02 118.98 150.664V150.478C118.98 150.036 118.848 149.78 118.52 149.539C118.113 149.239 117.384 148.959 116.138 148.713C113.893 148.272 112.052 147.713 110.778 146.693C109.418 145.602 108.825 144.093 108.825 142.104V141.918C108.825 140.148 109.544 138.517 110.931 137.345C112.308 136.182 114.268 135.529 116.675 135.529C118.695 135.529 120.456 135.865 121.938 136.621L121.941 136.623L121.943 136.624C123.241 137.295 123.616 138.799 122.944 140.024C122.634 140.602 122.167 141.046 121.556 141.245C120.952 141.443 120.335 141.359 119.794 141.128C118.814 140.708 118.018 140.543 116.729 140.543C114.663 140.543 114.184 141.554 114.184 141.865V142.024C114.184 142.267 114.219 142.396 114.256 142.474C114.288 142.543 114.352 142.636 114.528 142.756C114.937 143.034 115.751 143.324 117.378 143.658Z" fill="#5087FF"/>
<path fill-rule="evenodd" clip-rule="evenodd" d="M77.9548 135.529C75.2072 135.529 72.866 136.262 71.2274 138.022C69.6016 139.768 68.8281 142.356 68.8281 145.719V146.809C68.8281 150.173 69.6016 152.761 71.2274 154.507C72.866 156.267 75.2072 157 77.9548 157C80.7025 157 83.0437 156.267 84.6823 154.507C86.3081 152.761 87.0816 150.173 87.0816 146.809V145.719C87.0816 142.356 86.3081 139.768 84.6823 138.022C83.0437 136.262 80.7025 135.529 77.9548 135.529ZM80.699 141.622C80.1744 140.965 79.3534 140.623 77.9548 140.623C76.5563 140.623 75.7353 140.965 75.2107 141.622C74.6381 142.34 74.2409 143.644 74.2409 145.985V146.544C74.2409 148.885 74.6381 150.189 75.2107 150.906C75.7353 151.564 76.5563 151.906 77.9548 151.906C79.3534 151.906 80.1744 151.564 80.699 150.906C81.2716 150.189 81.6688 148.885 81.6688 146.544V145.985C81.6688 143.644 81.2716 142.34 80.699 141.622Z" fill="#5087FF"/>
<g filter="url(#filter2_d_3514_5174)">
<path fill-rule="evenodd" clip-rule="evenodd" d="M62.5504 147.732C63.2561 147.303 63.8655 146.749 64.3383 146.062C65.0246 145.066 65.3839 143.847 65.3839 142.449V141.971C65.3839 140.07 64.7221 138.422 63.4168 137.259C62.1248 136.109 60.3105 135.529 58.1713 135.529H53.1733C52.2801 135.529 51.3634 135.654 50.7143 136.285C50.0569 136.924 49.9219 137.837 49.9219 138.728V154.12C49.9219 150.452 52.3094 148.864 55.308 148.864H57.372C58.755 148.864 61.1754 148.459 62.5504 147.732ZM57.7193 140.357H55.308V144.037H57.4269C58.6364 144.037 59.2672 143.818 59.5841 143.574C59.8419 143.376 60.0243 143.058 60.0243 142.396V142.051C60.0243 141.367 59.8349 141.017 59.5874 140.81C59.3047 140.572 58.7548 140.357 57.7193 140.357Z" fill="#5087FF"/>
</g>
<g filter="url(#filter3_d_3514_5174)">
<path fill-rule="evenodd" clip-rule="evenodd" d="M34.4154 136.559C32.714 136.559 32.1557 137.091 32.1557 138.766V150.794C32.956 149.807 34.1739 149.352 35.5586 149.215V148.177H39.3869C43.8266 148.177 45.9534 145.518 45.9534 142.408V142.036C45.9534 138.899 43.9861 136.559 39.3869 136.559H34.4154ZM38.9349 145.306C41.1681 145.306 42.5239 144.588 42.5239 142.355V142.062C42.5239 139.962 41.1681 139.404 39.2274 139.404H35.5586V145.306H38.9349Z" fill="#5087FF"/>
<path fill-rule="evenodd" clip-rule="evenodd" d="M34.4154 135.567C33.5222 135.567 32.6055 135.692 31.9565 136.323C31.2991 136.962 31.1641 137.875 31.1641 138.766V154.158C31.1641 152.649 31.5338 151.561 32.1557 150.794V138.766C32.1557 137.091 32.714 136.559 34.4154 136.559H39.3869C43.9861 136.559 45.9534 138.899 45.9534 142.036V142.408C45.9534 145.518 43.8266 148.177 39.3869 148.177H35.5586V149.215C35.8812 149.183 36.2128 149.168 36.5502 149.168H39.3869C41.8077 149.168 43.7165 148.439 45.0253 147.171C46.3319 145.904 46.9451 144.191 46.9451 142.408V142.036C46.9451 140.256 46.3814 138.596 45.0646 137.39C43.7585 136.193 41.8453 135.567 39.3869 135.567H34.4154ZM36.5502 140.395H39.2274C40.1436 140.395 40.7135 140.536 41.0395 140.761C41.2862 140.932 41.5323 141.247 41.5323 142.062V142.355C41.5323 143.259 41.2703 143.653 40.976 143.871C40.6169 144.138 39.9836 144.314 38.9349 144.314H36.5502V140.395ZM35.5586 145.306V139.404H39.2274C41.1681 139.404 42.5239 139.962 42.5239 142.062V142.355C42.5239 144.588 41.1681 145.306 38.9349 145.306H35.5586Z" fill="#5087FF"/>
</g>
<g filter="url(#filter4_d_3514_5174)">
<path fill-rule="evenodd" clip-rule="evenodd" d="M93.5639 136.559C91.8624 136.559 91.3041 137.091 91.3041 138.766V150.794C92.1045 149.807 93.3224 149.352 94.707 149.215V148.177H98.5353C102.975 148.177 105.102 145.518 105.102 142.408V142.036C105.102 138.899 103.135 136.559 98.5353 136.559H93.5639ZM98.0834 145.306C100.317 145.306 101.672 144.588 101.672 142.355V142.062C101.672 139.962 100.317 139.404 98.3758 139.404H94.707V145.306H98.0834Z" fill="#5087FF"/>
<path fill-rule="evenodd" clip-rule="evenodd" d="M93.5639 135.567C92.6707 135.567 91.754 135.692 91.1049 136.323C90.4476 136.962 90.3125 137.875 90.3125 138.766V154.158C90.3125 152.649 90.6823 151.561 91.3041 150.794V138.766C91.3041 137.091 91.8624 136.559 93.5639 136.559H98.5353C103.135 136.559 105.102 138.899 105.102 142.036V142.408C105.102 145.518 102.975 148.177 98.5353 148.177H94.707V149.215C95.0296 149.183 95.3612 149.168 95.6987 149.168H98.5353C100.956 149.168 102.865 148.439 104.174 147.171C105.48 145.904 106.094 144.191 106.094 142.408V142.036C106.094 140.256 105.53 138.596 104.213 137.39C102.907 136.193 100.994 135.567 98.5353 135.567H93.5639ZM95.6987 140.395H98.3758C99.292 140.395 99.8619 140.536 100.188 140.761C100.435 140.932 100.681 141.247 100.681 142.062V142.355C100.681 143.259 100.419 143.653 100.124 143.871C99.7653 144.138 99.1321 144.314 98.0834 144.314H95.6987V140.395ZM94.707 145.306V139.404H98.3758C100.317 139.404 101.672 139.962 101.672 142.062V142.355C101.672 144.588 100.317 145.306 98.0834 145.306H94.707Z" fill="#5087FF"/>
</g>
<defs>
<filter id="filter0_bd_3514_5174" x="62.1717" y="-9.68763" width="108.242" height="105.765" filterUnits="userSpaceOnUse" color-interpolation-filters="sRGB">
<feFlood flood-opacity="0" result="BackgroundImageFix"/>
<feGaussianBlur in="BackgroundImage" stdDeviation="7.84381"/>
<feComposite in2="SourceAlpha" operator="in" result="effect1_backgroundBlur_3514_5174"/>
<feColorMatrix in="SourceAlpha" type="matrix" values="0 0 0 0 0 0 0 0 0 0 0 0 0 0 0 0 0 0 127 0" result="hardAlpha"/>
<feOffset dy="0.854104"/>
<feGaussianBlur stdDeviation="2.94143"/>
<feComposite in2="hardAlpha" operator="out"/>
<feColorMatrix type="matrix" values="0 0 0 0 0 0 0 0 0 0 0 0 0 0 0 0 0 0 0.4 0"/>
<feBlend mode="normal" in2="effect1_backgroundBlur_3514_5174" result="effect2_dropShadow_3514_5174"/>
<feBlend mode="normal" in="SourceGraphic" in2="effect2_dropShadow_3514_5174" result="shape"/>
</filter>
<filter id="filter1_d_3514_5174" x="90.0968" y="24.5015" width="52.4001" height="40.4391" filterUnits="userSpaceOnUse" color-interpolation-filters="sRGB">
<feFlood flood-opacity="0" result="BackgroundImageFix"/>
<feColorMatrix in="SourceAlpha" type="matrix" values="0 0 0 0 0 0 0 0 0 0 0 0 0 0 0 0 0 0 127 0" result="hardAlpha"/>
<feOffset dy="1.56876"/>
<feGaussianBlur stdDeviation="1.56876"/>
<feComposite in2="hardAlpha" operator="out"/>
<feColorMatrix type="matrix" values="0 0 0 0 0 0 0 0 0 0 0 0 0 0 0 0 0 0 0.25 0"/>
<feBlend mode="normal" in2="BackgroundImageFix" result="effect1_dropShadow_3514_5174"/>
<feBlend mode="normal" in="SourceGraphic" in2="effect1_dropShadow_3514_5174" result="shape"/>
</filter>
<filter id="filter2_d_3514_5174" x="48.5997" y="135.529" width="18.1053" height="21.2352" filterUnits="userSpaceOnUse" color-interpolation-filters="sRGB">
<feFlood flood-opacity="0" result="BackgroundImageFix"/>
<feColorMatrix in="SourceAlpha" type="matrix" values="0 0 0 0 0 0 0 0 0 0 0 0 0 0 0 0 0 0 127 0" result="hardAlpha"/>
<feOffset dy="1.32217"/>
<feGaussianBlur stdDeviation="0.661085"/>
<feComposite in2="hardAlpha" operator="out"/>
<feColorMatrix type="matrix" values="0 0 0 0 0 0 0 0 0 0 0 0 0 0 0 0 0 0 0.25 0"/>
<feBlend mode="normal" in2="BackgroundImageFix" result="effect1_dropShadow_3514_5174"/>
<feBlend mode="normal" in="SourceGraphic" in2="effect1_dropShadow_3514_5174" result="shape"/>
</filter>
<filter id="filter3_d_3514_5174" x="29.8419" y="135.567" width="18.4256" height="21.2352" filterUnits="userSpaceOnUse" color-interpolation-filters="sRGB">
<feFlood flood-opacity="0" result="BackgroundImageFix"/>
<feColorMatrix in="SourceAlpha" type="matrix" values="0 0 0 0 0 0 0 0 0 0 0 0 0 0 0 0 0 0 127 0" result="hardAlpha"/>
<feOffset dy="1.32217"/>
<feGaussianBlur stdDeviation="0.661085"/>
<feComposite in2="hardAlpha" operator="out"/>
<feColorMatrix type="matrix" values="0 0 0 0 0 0 0 0 0 0 0 0 0 0 0 0 0 0 0.25 0"/>
<feBlend mode="normal" in2="BackgroundImageFix" result="effect1_dropShadow_3514_5174"/>
<feBlend mode="normal" in="SourceGraphic" in2="effect1_dropShadow_3514_5174" result="shape"/>
</filter>
<filter id="filter4_d_3514_5174" x="88.9903" y="135.567" width="18.4256" height="21.2352" filterUnits="userSpaceOnUse" color-interpolation-filters="sRGB">
<feFlood flood-opacity="0" result="BackgroundImageFix"/>
<feColorMatrix in="SourceAlpha" type="matrix" values="0 0 0 0 0 0 0 0 0 0 0 0 0 0 0 0 0 0 127 0" result="hardAlpha"/>
<feOffset dy="1.32217"/>
<feGaussianBlur stdDeviation="0.661085"/>
<feComposite in2="hardAlpha" operator="out"/>
<feColorMatrix type="matrix" values="0 0 0 0 0 0 0 0 0 0 0 0 0 0 0 0 0 0 0.25 0"/>
<feBlend mode="normal" in2="BackgroundImageFix" result="effect1_dropShadow_3514_5174"/>
<feBlend mode="normal" in="SourceGraphic" in2="effect1_dropShadow_3514_5174" result="shape"/>
</filter>
<linearGradient id="paint0_linear_3514_5174" x1="77.8638" y1="9.71973" x2="78.2038" y2="161.878" gradientUnits="userSpaceOnUse">
<stop offset="0.380208" stop-color="#256AFF"/>
<stop offset="0.911458" stop-color="#3273FF" stop-opacity="0.619792"/>
<stop offset="1" stop-color="#286CFF" stop-opacity="0.4"/>
</linearGradient>
</defs>
</svg>
