<svg width="62" height="14" viewBox="0 0 62 14" fill="none" xmlns="http://www.w3.org/2000/svg">
<path fill-rule="evenodd" clip-rule="evenodd" d="M3.11608 0C2.53477 0 1.93815 0.0813262 1.51572 0.491804C1.0879 0.907516 1 1.5019 1 2.08148V12.0996C1 12.62 1.21614 13.051 1.58601 13.3343C1.93308 13.6001 2.36168 13.6966 2.75273 13.6966C3.14378 13.6966 3.57238 13.6001 3.91945 13.3343C4.28932 13.051 4.50546 12.62 4.50546 12.0996V8.8519H6.35163C7.92716 8.8519 9.16947 8.37746 10.0212 7.55173C10.8716 6.72734 11.2707 5.61232 11.2707 4.4519V4.20967C11.2707 3.05174 10.9039 1.97088 10.0469 1.18597C9.1968 0.407402 7.95163 0 6.35163 0H3.11608ZM1.64539 9.91002C1.64538 9.91002 1.64538 9.91003 1.64538 9.91003V12.0996C1.64538 12.1407 1.6474 12.1803 1.65135 12.2186C1.64741 12.1803 1.64539 12.1407 1.64539 12.0996V9.91002ZM4.50546 3.14211H6.24781C6.84409 3.14211 7.215 3.23341 7.42717 3.38011C7.58778 3.49116 7.74793 3.69629 7.74793 4.22697V4.4173C7.74793 5.00576 7.5774 5.26221 7.38588 5.40431C7.15213 5.57773 6.74001 5.69249 6.05749 5.69249H4.50546V3.14211ZM22.7152 11.5286C22.7244 11.5453 22.733 11.562 22.7412 11.5787L22.7152 11.5286ZM13.8564 12.0996C13.8564 12.1407 13.8584 12.1803 13.8624 12.2186C13.8584 12.1803 13.8564 12.1407 13.8564 12.0996V2.08154C13.8564 0.991485 14.2198 0.645437 15.3271 0.645437H18.58C20.4281 0.645437 21.7175 1.36643 22.292 2.58078C21.7175 1.3664 20.4281 0.645377 18.58 0.645377H15.3271C14.2198 0.645377 13.8564 0.991425 13.8564 2.08148V12.0996ZM22.5936 6.85525C22.2859 7.30219 21.8893 7.66295 21.43 7.94203L23.2795 11.2153L23.2818 11.2195C23.5143 11.6458 23.5688 12.1158 23.4177 12.5497C23.2689 12.9771 22.9446 13.3011 22.5465 13.4937L22.5388 13.4974L22.531 13.5009C22.1828 13.6582 21.7571 13.7554 21.3314 13.6773C20.878 13.5942 20.4774 13.3192 20.2376 12.8438L18.0598 8.67887H16.7165V12.0996C16.7165 12.62 16.5003 13.051 16.1305 13.3343C15.7834 13.6001 15.3548 13.6966 14.9638 13.6966C14.5727 13.6966 14.1441 13.6001 13.797 13.3343C13.4272 13.051 13.211 12.62 13.211 12.0996V2.08148C13.211 1.5019 13.2989 0.907516 13.7267 0.491804C14.1492 0.0813262 14.7458 0 15.3271 0H18.58C19.9722 0 21.153 0.37699 21.9938 1.12588C22.8434 1.88252 23.2741 2.9554 23.2741 4.19237V4.50381C23.2741 5.41331 23.0402 6.20659 22.5936 6.85525ZM16.7165 3.14211H18.2858C18.9597 3.14211 19.3176 3.28208 19.5016 3.43656C19.6627 3.57178 19.7859 3.79925 19.7859 4.24427V4.46921C19.7859 4.89964 19.6673 5.10673 19.4994 5.23577C19.2932 5.3943 18.8827 5.53677 18.0955 5.53677H16.7165V3.14211ZM41.6247 0C41.0434 0 40.4468 0.0813262 40.0243 0.491804C39.5965 0.907516 39.5086 1.5019 39.5086 2.08148V12.0996C39.5086 12.62 39.7248 13.051 40.0946 13.3343C40.4417 13.6001 40.8703 13.6966 41.2614 13.6966C41.6524 13.6966 42.081 13.6001 42.4281 13.3343C42.7979 13.051 43.0141 12.62 43.0141 12.0996V8.8519H44.8602C46.4358 8.8519 47.6781 8.37746 48.5299 7.55173C49.3803 6.72734 49.7793 5.61232 49.7793 4.4519V4.20967C49.7793 3.05174 49.4125 1.97088 48.5555 1.18597C47.7054 0.407402 46.4603 0 44.8602 0H41.6247ZM43.0141 3.14211H44.7564C45.3527 3.14211 45.7236 3.23341 45.9358 3.38011C46.0964 3.49116 46.2566 3.69629 46.2566 4.22697V4.4173C46.2566 5.00576 46.086 5.26221 45.8945 5.40431C45.6608 5.57773 45.2486 5.69249 44.5661 5.69249H43.0141V3.14211ZM16.0711 6.18214V6.1822H18.0955C19.7738 6.1822 20.4313 5.59392 20.4313 4.46927V4.24433C20.4313 4.24431 20.4313 4.24429 20.4313 4.24427V4.46921C20.4313 5.59386 19.7738 6.18214 18.0955 6.18214H16.0711ZM40.154 2.08148V12.0996C40.154 12.1407 40.156 12.1803 40.16 12.2186C40.156 12.1803 40.154 12.1407 40.154 12.0996V2.08154C40.154 2.08152 40.154 2.0815 40.154 2.08148ZM48.3666 1.91685C47.6904 1.12913 46.5474 0.645437 44.8603 0.645437H41.6247C40.6558 0.645437 40.2565 0.910365 40.1718 1.7068C40.2565 0.91032 40.6558 0.645377 41.6247 0.645377H44.8602C46.5474 0.645377 47.6904 1.1291 48.3666 1.91685ZM42.3687 6.33786L42.3687 6.33792H44.5661C46.0195 6.33792 46.9019 5.87076 46.9019 4.41736V4.22703C46.9019 4.22701 46.9019 4.22699 46.9019 4.22697V4.4173C46.9019 5.8707 46.0195 6.33786 44.5661 6.33786H42.3687Z" fill="#5087FF"/>
<path d="M57.1115 5.31681C58.6059 5.62106 59.7471 6.09017 60.5189 6.8C61.3191 7.53599 61.6595 8.47206 61.6595 9.54811V9.70384C61.6595 11.0354 61.2063 12.1504 60.2548 12.9148C59.3267 13.6604 58.0137 14 56.429 14C54.9115 14 53.3351 13.5789 52.2987 12.9336L52.2978 12.933C51.8709 12.6662 51.6079 12.2689 51.539 11.8169C51.4723 11.38 51.5949 10.9508 51.8201 10.6006L51.8216 10.5983L51.8231 10.5959C52.054 10.2435 52.3813 9.96463 52.8026 9.86031C53.2251 9.75571 53.6451 9.85065 54.0134 10.0594L54.0151 10.0603L54.0167 10.0613C54.7323 10.4723 55.6077 10.7195 56.5329 10.7195C57.2557 10.7195 57.669 10.572 57.8848 10.4159C58.073 10.2798 58.1541 10.1087 58.1541 9.87686V9.75574C58.1541 9.46812 58.0677 9.30122 57.8546 9.14438C57.5894 8.94921 57.1149 8.76728 56.3044 8.60682C54.8429 8.31973 53.6448 7.95618 52.8159 7.29203C51.9304 6.5825 51.5446 5.60027 51.5446 4.30549V4.18437C51.5446 3.03227 52.0125 1.97132 52.9154 1.20849C53.8113 0.45164 55.0872 0.0266113 56.654 0.0266113C57.9682 0.0266113 59.1146 0.245245 60.079 0.7373L60.0806 0.738116L60.0822 0.738941C60.9268 1.17579 61.1709 2.15484 60.7337 2.95213C60.5321 3.32815 60.2277 3.617 59.8303 3.74675C59.4372 3.87513 59.0354 3.82095 58.6837 3.67022C58.0459 3.39687 57.528 3.28984 56.6886 3.28984C55.3442 3.28984 55.0327 3.94768 55.0327 4.14977V4.25358C55.0327 4.41199 55.0553 4.49575 55.0794 4.54668C55.1004 4.59112 55.1419 4.6521 55.2563 4.72988C55.5225 4.91085 56.0525 5.09977 57.1115 5.31681Z" fill="#5087FF"/>
<path fill-rule="evenodd" clip-rule="evenodd" d="M31.4536 0.0266113C29.6654 0.0266113 28.1417 0.503323 27.0752 1.64887C26.0171 2.78549 25.5137 4.4695 25.5137 6.65862V7.36801C25.5137 9.55713 26.0171 11.2411 27.0752 12.3778C28.1417 13.5233 29.6654 14 31.4536 14C33.2418 14 34.7655 13.5233 35.832 12.3778C36.8901 11.2411 37.3935 9.55713 37.3935 7.36801V6.65862C37.3935 4.4695 36.8901 2.78549 35.832 1.64887C34.7655 0.503323 33.2418 0.0266113 31.4536 0.0266113ZM33.2395 3.99215C32.8981 3.56433 32.3638 3.34175 31.4536 3.34175C30.5434 3.34175 30.009 3.56433 29.6676 3.99215C29.2949 4.45919 29.0364 5.30801 29.0364 6.83164V7.19499C29.0364 8.71862 29.2949 9.56744 29.6676 10.0345C30.009 10.4623 30.5434 10.6849 31.4536 10.6849C32.3638 10.6849 32.8981 10.4623 33.2395 10.0345C33.6122 9.56744 33.8707 8.71862 33.8707 7.19499V6.83164C33.8707 5.30801 33.6122 4.45919 33.2395 3.99215Z" fill="#5087FF"/>
<g filter="url(#filter0_d_1013_1579)">
<path fill-rule="evenodd" clip-rule="evenodd" d="M21.428 7.96864C21.8872 7.68957 22.2839 7.3288 22.5916 6.88187C23.0382 6.2332 23.2721 5.43992 23.2721 4.53042V4.21898C23.2721 2.98201 22.8414 1.90914 21.9918 1.15249C21.151 0.403601 19.9702 0.0266113 18.5779 0.0266113H15.3251C14.7438 0.0266113 14.1471 0.107938 13.7247 0.518415C13.2969 0.934127 13.209 1.52851 13.209 2.10809V12.1262C13.209 9.73893 14.7628 8.70549 16.7144 8.70549H18.0577C18.9578 8.70549 20.5331 8.44132 21.428 7.96864ZM18.2838 3.16872H16.7144V5.56338H18.0934C18.8807 5.56338 19.2912 5.42091 19.4974 5.26238C19.6652 5.13335 19.7839 4.92625 19.7839 4.49582V4.27089C19.7839 3.82586 19.6606 3.59839 19.4996 3.46317C19.3156 3.30869 18.9577 3.16872 18.2838 3.16872Z" fill="#5087FF"/>
</g>
<g filter="url(#filter1_d_1013_1579)">
<path fill-rule="evenodd" clip-rule="evenodd" d="M3.11608 0.696159C2.00873 0.696159 1.64538 1.04221 1.64538 2.13226V9.96081C2.16625 9.31836 2.95889 9.02198 3.86008 8.93292V8.2573H6.35163C9.24113 8.2573 10.6253 6.52706 10.6253 4.50268V4.26045C10.6253 2.21877 9.34494 0.696159 6.35163 0.696159H3.11608ZM6.05749 6.38865C7.51089 6.38865 8.39331 5.92148 8.39331 4.46808V4.27775C8.39331 2.91086 7.51089 2.54751 6.24781 2.54751H3.86008V6.38865H6.05749Z" fill="#5087FF"/>
<path fill-rule="evenodd" clip-rule="evenodd" d="M3.11608 0.0507812C2.53477 0.0507812 1.93815 0.132107 1.51572 0.542585C1.0879 0.958297 1 1.55268 1 2.13226V12.1503C1 11.1682 1.24065 10.46 1.64538 9.96081V2.13226C1.64538 1.04221 2.00873 0.696159 3.11608 0.696159H6.35163C9.34494 0.696159 10.6253 2.21877 10.6253 4.26045V4.50268C10.6253 6.52706 9.24113 8.2573 6.35163 8.2573H3.86008V8.93292C4.07001 8.91218 4.28582 8.90268 4.50546 8.90268H6.35163C7.92716 8.90268 9.16948 8.42824 10.0212 7.60252C10.8716 6.77812 11.2707 5.6631 11.2707 4.50268V4.26045C11.2707 3.10252 10.9039 2.02166 10.0469 1.23675C9.1968 0.458184 7.95163 0.0507812 6.35163 0.0507812H3.11608ZM4.50546 3.19289H6.24781C6.84409 3.19289 7.215 3.28419 7.42718 3.43089C7.58778 3.54194 7.74793 3.74707 7.74793 4.27775V4.46808C7.74793 5.05654 7.5774 5.31299 7.38588 5.45509C7.15213 5.62851 6.74001 5.74327 6.05749 5.74327H4.50546V3.19289ZM3.86008 6.38865V2.54751H6.24781C7.51089 2.54751 8.39331 2.91086 8.39331 4.27775V4.46808C8.39331 5.92148 7.51089 6.38865 6.05749 6.38865H3.86008Z" fill="#5087FF"/>
</g>
<g filter="url(#filter2_d_1013_1579)">
<path fill-rule="evenodd" clip-rule="evenodd" d="M41.6122 0.696159C40.5048 0.696159 40.1415 1.04221 40.1415 2.13226V9.96081C40.6623 9.31836 41.455 9.02198 42.3562 8.93292V8.2573H44.8477C47.7372 8.2573 49.1214 6.52706 49.1214 4.50268V4.26045C49.1214 2.21877 47.841 0.696159 44.8477 0.696159H41.6122ZM44.5536 6.38865C46.007 6.38865 46.8894 5.92148 46.8894 4.46808V4.27775C46.8894 2.91086 46.007 2.54751 44.7439 2.54751H42.3562V6.38865H44.5536Z" fill="#5087FF"/>
<path fill-rule="evenodd" clip-rule="evenodd" d="M41.6122 0.0507812C41.0309 0.0507812 40.4342 0.132107 40.0118 0.542585C39.584 0.958297 39.4961 1.55268 39.4961 2.13226V12.1503C39.4961 11.1682 39.7367 10.46 40.1415 9.96081V2.13226C40.1415 1.04221 40.5048 0.696159 41.6122 0.696159H44.8477C47.841 0.696159 49.1214 2.21877 49.1214 4.26045V4.50268C49.1214 6.52706 47.7372 8.2573 44.8477 8.2573H42.3562V8.93292C42.5661 8.91218 42.7819 8.90268 43.0016 8.90268H44.8477C46.4233 8.90268 47.6656 8.42824 48.5173 7.60252C49.3677 6.77812 49.7668 5.6631 49.7668 4.50268V4.26045C49.7668 3.10252 49.4 2.02166 48.543 1.23675C47.6929 0.458184 46.4477 0.0507812 44.8477 0.0507812H41.6122ZM43.0016 3.19289H44.7439C45.3402 3.19289 45.7111 3.28419 45.9233 3.43089C46.0839 3.54194 46.244 3.74707 46.244 4.27775V4.46808C46.244 5.05654 46.0735 5.31299 45.882 5.45509C45.6482 5.62851 45.2361 5.74327 44.5536 5.74327H43.0016V3.19289ZM42.3562 6.38865V2.54751H44.7439C46.007 2.54751 46.8894 2.91086 46.8894 4.27775V4.46808C46.8894 5.92148 46.007 6.38865 44.5536 6.38865H42.3562Z" fill="#5087FF"/>
</g>
<defs>
<filter id="filter0_d_1013_1579" x="12.3485" y="0.0266113" width="11.7835" height="13.8206" filterUnits="userSpaceOnUse" color-interpolation-filters="sRGB">
<feFlood flood-opacity="0" result="BackgroundImageFix"/>
<feColorMatrix in="SourceAlpha" type="matrix" values="0 0 0 0 0 0 0 0 0 0 0 0 0 0 0 0 0 0 127 0" result="hardAlpha"/>
<feOffset dy="0.860503"/>
<feGaussianBlur stdDeviation="0.430251"/>
<feComposite in2="hardAlpha" operator="out"/>
<feColorMatrix type="matrix" values="0 0 0 0 0 0 0 0 0 0 0 0 0 0 0 0 0 0 0.25 0"/>
<feBlend mode="normal" in2="BackgroundImageFix" result="effect1_dropShadow_1013_1579"/>
<feBlend mode="normal" in="SourceGraphic" in2="effect1_dropShadow_1013_1579" result="shape"/>
</filter>
<filter id="filter1_d_1013_1579" x="0.139497" y="0.0507812" width="11.9925" height="13.8206" filterUnits="userSpaceOnUse" color-interpolation-filters="sRGB">
<feFlood flood-opacity="0" result="BackgroundImageFix"/>
<feColorMatrix in="SourceAlpha" type="matrix" values="0 0 0 0 0 0 0 0 0 0 0 0 0 0 0 0 0 0 127 0" result="hardAlpha"/>
<feOffset dy="0.860503"/>
<feGaussianBlur stdDeviation="0.430251"/>
<feComposite in2="hardAlpha" operator="out"/>
<feColorMatrix type="matrix" values="0 0 0 0 0 0 0 0 0 0 0 0 0 0 0 0 0 0 0.25 0"/>
<feBlend mode="normal" in2="BackgroundImageFix" result="effect1_dropShadow_1013_1579"/>
<feBlend mode="normal" in="SourceGraphic" in2="effect1_dropShadow_1013_1579" result="shape"/>
</filter>
<filter id="filter2_d_1013_1579" x="38.6356" y="0.0507812" width="11.9925" height="13.8206" filterUnits="userSpaceOnUse" color-interpolation-filters="sRGB">
<feFlood flood-opacity="0" result="BackgroundImageFix"/>
<feColorMatrix in="SourceAlpha" type="matrix" values="0 0 0 0 0 0 0 0 0 0 0 0 0 0 0 0 0 0 127 0" result="hardAlpha"/>
<feOffset dy="0.860503"/>
<feGaussianBlur stdDeviation="0.430251"/>
<feComposite in2="hardAlpha" operator="out"/>
<feColorMatrix type="matrix" values="0 0 0 0 0 0 0 0 0 0 0 0 0 0 0 0 0 0 0.25 0"/>
<feBlend mode="normal" in2="BackgroundImageFix" result="effect1_dropShadow_1013_1579"/>
<feBlend mode="normal" in="SourceGraphic" in2="effect1_dropShadow_1013_1579" result="shape"/>
</filter>
</defs>
</svg>
