<svg width="71" height="17" viewBox="0 0 71 17" fill="none" xmlns="http://www.w3.org/2000/svg">
<path fill-rule="evenodd" clip-rule="evenodd" d="M3.44194 0C2.77111 0 2.08262 0.0938497 1.59513 0.567537C1.10143 1.04726 1 1.73317 1 2.402V13.9628C1 14.5633 1.24942 15.0607 1.67625 15.3876C2.07677 15.6944 2.57137 15.8057 3.02263 15.8057C3.4739 15.8057 3.9685 15.6944 4.36902 15.3876C4.79585 15.0607 5.04527 14.5633 5.04527 13.9628V10.215H7.17573C8.99388 10.215 10.4275 9.66751 11.4104 8.71463C12.3918 7.76329 12.8523 6.47657 12.8523 5.13745V4.85792C12.8523 3.52168 12.429 2.27438 11.44 1.36859C10.459 0.470139 9.02212 0 7.17573 0H3.44194ZM4.29989 10.25V13.9631C4.29989 14.4002 4.10118 14.6981 3.80294 14.8721C4.10152 14.6981 4.30051 14.4001 4.30051 13.9628V10.2499C4.3003 10.2499 4.3001 10.2499 4.29989 10.25ZM5.04527 3.62597H7.05593C7.74402 3.62597 8.17205 3.73132 8.4169 3.90062C8.60224 4.02877 8.78705 4.26548 8.78705 4.87789V5.09752C8.78705 5.7766 8.59026 6.07254 8.36924 6.23652C8.0995 6.43665 7.62392 6.56908 6.83629 6.56908H5.04527V3.62597ZM18.3919 9.27094H18.3913V13.9631C18.3913 14.4002 18.1926 14.6981 17.8943 14.8721C18.1929 14.6981 18.3919 14.4001 18.3919 13.9628V9.27094ZM16.3906 0.961889C16.6547 0.807584 17.0265 0.744759 17.5333 0.744759H21.2871C24.2422 0.744759 25.9593 2.3421 25.9593 4.83795V5.19736C25.9593 6.74042 25.2971 7.84672 24.2095 8.51626C24.2042 8.5195 24.1989 8.52273 24.1937 8.52595C25.2904 7.85738 25.9587 6.74796 25.9587 5.19771V4.83831C25.9587 2.34246 24.2416 0.745117 21.2865 0.745117H17.5327C17.0263 0.745117 16.6547 0.807846 16.3906 0.961889ZM23.5434 8.85137C23.5432 8.85146 23.543 8.85155 23.5427 8.85164L26.0586 13.3042C26.3926 13.9167 26.1919 14.5119 25.6649 14.8333C26.1924 14.512 26.3934 13.9166 26.0592 13.3039L23.5434 8.85137ZM25.9188 7.9109C25.5637 8.42666 25.106 8.84298 24.576 9.16502L26.7103 12.9424L26.713 12.9472C26.9813 13.4391 27.0442 13.9816 26.8698 14.4822C26.6981 14.9754 26.3239 15.3493 25.8644 15.5716L25.8555 15.5759L25.8466 15.58C25.4447 15.7614 24.9535 15.8736 24.4623 15.7835C23.939 15.6876 23.4768 15.3702 23.2 14.8217L20.6868 10.0153H19.1367V13.9628C19.1367 14.5633 18.8873 15.0607 18.4604 15.3876C18.0599 15.6944 17.5653 15.8057 17.114 15.8057C16.6628 15.8057 16.1682 15.6944 15.7677 15.3876C15.3408 15.0607 15.0914 14.5633 15.0914 13.9628V2.402C15.0914 1.73317 15.1928 1.04726 15.6865 0.567537C16.174 0.0938497 16.8625 0 17.5333 0H21.2871C22.8938 0 24.2564 0.435043 25.2267 1.29925C26.2071 2.17242 26.7041 3.4105 26.7041 4.83795V5.19736C26.7041 6.24691 26.4342 7.16234 25.9188 7.9109ZM19.1367 3.62597H20.9477C21.7253 3.62597 22.1383 3.78749 22.3507 3.96576C22.5366 4.1218 22.6788 4.3843 22.6788 4.89785V5.15742C22.6788 5.65414 22.5419 5.89312 22.3482 6.04203C22.1102 6.22497 21.6365 6.38938 20.728 6.38938H19.1367V3.62597ZM47.8805 0C47.2097 0 46.5212 0.0938497 46.0337 0.567537C45.54 1.04726 45.4386 1.73317 45.4386 2.402V13.9628C45.4386 14.5633 45.688 15.0607 46.1148 15.3876C46.5154 15.6944 47.01 15.8057 47.4612 15.8057C47.9125 15.8057 48.4071 15.6944 48.8076 15.3876C49.2345 15.0607 49.4839 14.5633 49.4839 13.9628V10.215H51.6143C53.4325 10.215 54.8661 9.66751 55.849 8.71463C56.8304 7.76329 57.2909 6.47657 57.2909 5.13745V4.85792C57.2909 3.52168 56.8676 2.27438 55.8786 1.36859C54.8976 0.470139 53.4607 0 51.6143 0H47.8805ZM49.4839 3.62597H51.4945C52.1826 3.62597 52.6107 3.73132 52.8555 3.90062C53.0408 4.02877 53.2257 4.26548 53.2257 4.87789V5.09752C53.2257 5.7766 53.0289 6.07254 52.8078 6.23652C52.5381 6.43665 52.0625 6.56908 51.2749 6.56908H49.4839V3.62597ZM18.3919 2.88156H18.3913V7.13449H20.7274C21.5693 7.13449 22.1886 7.00623 22.6197 6.75461C22.1886 7.00599 21.5695 7.13414 20.728 7.13414H18.3919V2.88156ZM46.7499 0.954934C47.0132 0.805947 47.3811 0.745117 47.8799 0.745117H51.6137C55.068 0.745117 56.5455 2.5022 56.5455 4.85828V5.13781C56.5455 6.62743 55.896 7.97903 54.5609 8.76296C55.8965 7.97909 56.5461 6.6273 56.5461 5.13745V4.85792C56.5461 2.50184 55.0686 0.744759 51.6143 0.744759H47.8805C47.3814 0.744759 47.0132 0.805693 46.7499 0.954934ZM48.7391 9.47061H48.7385V13.9631C48.7385 14.3972 48.5425 14.694 48.2476 14.8686C48.5428 14.6941 48.7391 14.3971 48.7391 13.9628V9.47061ZM48.7391 2.88156H48.7385V7.3142H51.2743C52.0197 7.3142 52.635 7.20771 53.0885 6.94215C52.635 7.20745 52.02 7.31384 51.2749 7.31384H48.7391V2.88156Z" fill="#FF5A56"/>
<path d="M65.7507 6.13512C67.4752 6.48622 68.7922 7.02756 69.6828 7.8467C70.6063 8.69603 70.9991 9.77624 70.9991 11.018V11.1977C70.9991 12.7343 70.476 14.021 69.378 14.9031C68.3071 15.7635 66.7918 16.1555 64.9632 16.1555C63.2119 16.1555 61.3928 15.6695 60.1968 14.9248L60.1957 14.9241C59.7032 14.6163 59.3996 14.1577 59.3201 13.6361C59.2432 13.132 59.3847 12.6367 59.6445 12.2326L59.6462 12.2299L59.648 12.2272C59.9144 11.8205 60.2922 11.4987 60.7783 11.3783C61.2658 11.2576 61.7505 11.3671 62.1756 11.608L62.1775 11.6091L62.1794 11.6102C63.0051 12.0845 64.0153 12.3698 65.083 12.3698C65.9172 12.3698 66.3941 12.1996 66.6431 12.0194C66.8602 11.8623 66.9538 11.6649 66.9538 11.3974V11.2576C66.9538 10.9257 66.8542 10.7331 66.6082 10.5521C66.3022 10.3269 65.7547 10.1169 64.8193 9.93175C63.1328 9.60046 61.7502 9.18092 60.7936 8.4145C59.7717 7.59571 59.3265 6.46222 59.3265 4.96806V4.82829C59.3265 3.49878 59.8665 2.27445 60.9085 1.39415C61.9423 0.520753 63.4147 0.0302734 65.2227 0.0302734C66.7393 0.0302734 68.0623 0.282575 69.1752 0.850401L69.177 0.851344L69.1789 0.852296C70.1535 1.35642 70.4352 2.48623 69.9307 3.4063C69.698 3.84022 69.3468 4.17355 68.8882 4.32328C68.4345 4.47142 67.9708 4.4089 67.565 4.23496C66.8289 3.91952 66.2314 3.79601 65.2627 3.79601C63.7113 3.79601 63.3518 4.55515 63.3518 4.78836V4.90816C63.3518 5.09097 63.3779 5.18762 63.4057 5.24639C63.43 5.29767 63.4778 5.36804 63.6098 5.4578C63.917 5.66664 64.5286 5.88465 65.7507 6.13512Z" fill="#FF5A56"/>
<path fill-rule="evenodd" clip-rule="evenodd" d="M36.1417 0.0302734C34.0781 0.0302734 32.3198 0.580395 31.0891 1.90234C29.868 3.21399 29.2871 5.15733 29.2871 7.68355V8.50218C29.2871 11.0284 29.868 12.9717 31.0891 14.2834C32.3198 15.6053 34.0781 16.1555 36.1417 16.1555C38.2053 16.1555 39.9636 15.6053 41.1943 14.2834C42.4154 12.9717 42.9963 11.0284 42.9963 8.50218V7.68355C42.9963 5.15733 42.4154 3.21399 41.1943 1.90234C39.9636 0.580395 38.2053 0.0302734 36.1417 0.0302734ZM38.2027 4.60646C37.8087 4.11276 37.1921 3.85591 36.1417 3.85591C35.0914 3.85591 34.4747 4.11276 34.0807 4.60646C33.6507 5.14543 33.3523 6.12496 33.3523 7.88321V8.30252C33.3523 10.0608 33.6507 11.0403 34.0807 11.5793C34.4747 12.073 35.0914 12.3298 36.1417 12.3298C37.1921 12.3298 37.8087 12.073 38.2027 11.5793C38.6328 11.0403 38.9311 10.0608 38.9311 8.30252V7.88321C38.9311 6.12496 38.6328 5.14543 38.2027 4.60646Z" fill="#FF5A56"/>
<g filter="url(#filter0_d_3195_6666)">
<path fill-rule="evenodd" clip-rule="evenodd" d="M24.5725 9.1953C25.1025 8.87325 25.5602 8.45693 25.9153 7.94117C26.4307 7.19262 26.7006 6.27718 26.7006 5.22763V4.86823C26.7006 3.44078 26.2036 2.20269 25.2232 1.32953C24.2529 0.465316 22.8903 0.0302734 21.2836 0.0302734H17.5298C16.859 0.0302734 16.1705 0.124123 15.683 0.597811C15.1893 1.07754 15.0879 1.76345 15.0879 2.43228V13.9931C15.0879 11.2382 16.881 10.0456 19.1332 10.0456H20.6833C21.722 10.0456 23.5398 9.74077 24.5725 9.1953ZM20.9442 3.65624H19.1332V6.41965H20.7245C21.6329 6.41965 22.1067 6.25524 22.3446 6.0723C22.5383 5.9234 22.6753 5.68441 22.6753 5.1877V4.92813C22.6753 4.41457 22.533 4.15207 22.3472 3.99603C22.1348 3.81776 21.7218 3.65624 20.9442 3.65624Z" fill="#FF5A56"/>
</g>
<g filter="url(#filter1_d_3195_6666)">
<path fill-rule="evenodd" clip-rule="evenodd" d="M3.44194 0.803353C2.16406 0.803353 1.74476 1.20269 1.74476 2.4606V11.4947C2.34585 10.7533 3.26055 10.4113 4.30051 10.3085V9.52884H7.17573C10.5102 9.52884 12.1075 7.53217 12.1075 5.19605V4.91651C12.1075 2.56043 10.63 0.803353 7.17573 0.803353H3.44194ZM6.83629 7.37243C8.5135 7.37243 9.53181 6.83333 9.53181 5.15612V4.93648C9.53181 3.3591 8.5135 2.9398 7.05593 2.9398H4.30051V7.37243H6.83629Z" fill="#FF5A56"/>
<path fill-rule="evenodd" clip-rule="evenodd" d="M3.44194 0.0585938C2.77111 0.0585938 2.08262 0.152443 1.59513 0.626131C1.10143 1.10586 1 1.79177 1 2.4606V14.0214C1 12.8879 1.27771 12.0708 1.74476 11.4947V2.4606C1.74476 1.20269 2.16406 0.803353 3.44194 0.803353H7.17573C10.63 0.803353 12.1075 2.56043 12.1075 4.91651V5.19605C12.1075 7.53217 10.5102 9.52884 7.17573 9.52884H4.30051V10.3085C4.54276 10.2846 4.79181 10.2736 5.04527 10.2736H7.17573C8.99388 10.2736 10.4275 9.7261 11.4104 8.77323C12.3918 7.82188 12.8523 6.53516 12.8523 5.19605V4.91651C12.8523 3.58028 12.429 2.33297 11.44 1.42719C10.459 0.528732 9.02212 0.0585938 7.17573 0.0585938H3.44194ZM5.04527 3.68456H7.05593C7.74403 3.68456 8.17205 3.78992 8.4169 3.95921C8.60224 4.08736 8.78705 4.32407 8.78705 4.93648V5.15612C8.78705 5.8352 8.59026 6.13113 8.36925 6.29511C8.0995 6.49524 7.62392 6.62767 6.83629 6.62767H5.04527V3.68456ZM4.30051 7.37243V2.9398H7.05593C8.5135 2.9398 9.53181 3.3591 9.53181 4.93648V5.15612C9.53181 6.83333 8.5135 7.37243 6.83629 7.37243H4.30051Z" fill="#FF5A56"/>
</g>
<g filter="url(#filter2_d_3195_6666)">
<path fill-rule="evenodd" clip-rule="evenodd" d="M47.8658 0.803353C46.5879 0.803353 46.1686 1.20269 46.1686 2.4606V11.4947C46.7697 10.7533 47.6844 10.4113 48.7243 10.3085V9.52884H51.5996C54.934 9.52884 56.5314 7.53217 56.5314 5.19605V4.91651C56.5314 2.56043 55.0538 0.803353 51.5996 0.803353H47.8658ZM51.2601 7.37243C52.9373 7.37243 53.9556 6.83333 53.9556 5.15612V4.93648C53.9556 3.3591 52.9373 2.9398 51.4798 2.9398H48.7243V7.37243H51.2601Z" fill="#FF5A56"/>
<path fill-rule="evenodd" clip-rule="evenodd" d="M47.8658 0.0585938C47.1949 0.0585938 46.5064 0.152443 46.019 0.626131C45.5253 1.10586 45.4238 1.79177 45.4238 2.4606V14.0214C45.4238 12.8879 45.7015 12.0708 46.1686 11.4947V2.4606C46.1686 1.20269 46.5879 0.803353 47.8658 0.803353H51.5996C55.0538 0.803353 56.5314 2.56043 56.5314 4.91651V5.19605C56.5314 7.53217 54.934 9.52884 51.5996 9.52884H48.7243V10.3085C48.9666 10.2846 49.2156 10.2736 49.4691 10.2736H51.5996C53.4177 10.2736 54.8513 9.7261 55.8343 8.77323C56.8156 7.82188 57.2761 6.53516 57.2761 5.19605V4.91651C57.2761 3.58028 56.8528 2.33297 55.8638 1.42719C54.8829 0.528732 53.4459 0.0585938 51.5996 0.0585938H47.8658ZM49.4691 3.68456H51.4798C52.1679 3.68456 52.5959 3.78992 52.8407 3.95921C53.0261 4.08736 53.2109 4.32407 53.2109 4.93648V5.15612C53.2109 5.8352 53.0141 6.13113 52.7931 6.29511C52.5233 6.49524 52.0478 6.62767 51.2601 6.62767H49.4691V3.68456ZM48.7243 7.37243V2.9398H51.4798C52.9373 2.9398 53.9556 3.3591 53.9556 4.93648V5.15612C53.9556 6.83333 52.9373 7.37243 51.2601 7.37243H48.7243Z" fill="#FF5A56"/>
</g>
<defs>
<filter id="filter0_d_3195_6666" x="14.0949" y="0.0302734" width="13.5993" height="15.9489" filterUnits="userSpaceOnUse" color-interpolation-filters="sRGB">
<feFlood flood-opacity="0" result="BackgroundImageFix"/>
<feColorMatrix in="SourceAlpha" type="matrix" values="0 0 0 0 0 0 0 0 0 0 0 0 0 0 0 0 0 0 127 0" result="hardAlpha"/>
<feOffset dy="0.993013"/>
<feGaussianBlur stdDeviation="0.496506"/>
<feComposite in2="hardAlpha" operator="out"/>
<feColorMatrix type="matrix" values="0 0 0 0 0 0 0 0 0 0 0 0 0 0 0 0 0 0 0.25 0"/>
<feBlend mode="normal" in2="BackgroundImageFix" result="effect1_dropShadow_3195_6666"/>
<feBlend mode="normal" in="SourceGraphic" in2="effect1_dropShadow_3195_6666" result="shape"/>
</filter>
<filter id="filter1_d_3195_6666" x="0.00698745" y="0.0585938" width="13.8376" height="15.9489" filterUnits="userSpaceOnUse" color-interpolation-filters="sRGB">
<feFlood flood-opacity="0" result="BackgroundImageFix"/>
<feColorMatrix in="SourceAlpha" type="matrix" values="0 0 0 0 0 0 0 0 0 0 0 0 0 0 0 0 0 0 127 0" result="hardAlpha"/>
<feOffset dy="0.993013"/>
<feGaussianBlur stdDeviation="0.496506"/>
<feComposite in2="hardAlpha" operator="out"/>
<feColorMatrix type="matrix" values="0 0 0 0 0 0 0 0 0 0 0 0 0 0 0 0 0 0 0.25 0"/>
<feBlend mode="normal" in2="BackgroundImageFix" result="effect1_dropShadow_3195_6666"/>
<feBlend mode="normal" in="SourceGraphic" in2="effect1_dropShadow_3195_6666" result="shape"/>
</filter>
<filter id="filter2_d_3195_6666" x="44.4308" y="0.0585938" width="13.8376" height="15.9489" filterUnits="userSpaceOnUse" color-interpolation-filters="sRGB">
<feFlood flood-opacity="0" result="BackgroundImageFix"/>
<feColorMatrix in="SourceAlpha" type="matrix" values="0 0 0 0 0 0 0 0 0 0 0 0 0 0 0 0 0 0 127 0" result="hardAlpha"/>
<feOffset dy="0.993013"/>
<feGaussianBlur stdDeviation="0.496506"/>
<feComposite in2="hardAlpha" operator="out"/>
<feColorMatrix type="matrix" values="0 0 0 0 0 0 0 0 0 0 0 0 0 0 0 0 0 0 0.25 0"/>
<feBlend mode="normal" in2="BackgroundImageFix" result="effect1_dropShadow_3195_6666"/>
<feBlend mode="normal" in="SourceGraphic" in2="effect1_dropShadow_3195_6666" result="shape"/>
</filter>
</defs>
</svg>
