<svg width="295" height="194" viewBox="0 0 295 194" fill="none" xmlns="http://www.w3.org/2000/svg">
<path d="M69.8438 0.120001V28.44H74.7038V0.120001H69.8438ZM59.3738 2.01C55.0538 2.01 51.8438 5.91 51.8438 12.21C51.8438 18.51 55.0538 22.41 59.3738 22.41C63.6938 22.41 66.9037 18.51 66.9037 12.21C66.9037 5.91 63.6938 2.01 59.3738 2.01ZM59.3738 6.42C61.1138 6.42 62.2538 8.25 62.2538 12.21C62.2538 16.17 61.1138 18 59.3738 18C57.6338 18 56.4938 16.17 56.4938 12.21C56.4938 8.25 57.6338 6.42 59.3738 6.42Z" fill="#4C4C4C"/>
<path d="M103.367 11.46C99.2269 10.32 97.5169 7.8 97.1269 5.31H102.137V1.53H86.8369V5.31H91.9969C91.6069 8.01 89.8669 10.68 85.5469 11.91L87.9469 15.66C91.2169 14.76 93.3769 12.84 94.6069 10.44C95.8369 12.6 97.9369 14.34 100.997 15.18L103.367 11.46ZM104.387 24.24H94.9369V22.38H104.387V24.24ZM104.387 18.72H94.9369V16.56H90.1369V28.05H109.187V16.56H104.387V18.72ZM104.327 0.209999V15.48H109.187V0.209999H104.327Z" fill="#4C4C4C"/>
<path d="M114.825 32.31C118.995 31.05 121.215 28.14 121.215 24.27C121.215 21.15 119.925 19.29 117.585 19.29C115.725 19.29 114.255 20.49 114.255 22.29C114.255 24.21 115.785 25.29 117.435 25.29H117.705C117.735 26.94 116.355 28.56 113.745 29.46L114.825 32.31Z" fill="#4C4C4C"/>
<path d="M144.528 7.41H142.548C142.698 6.12 142.758 4.8 142.758 3.39H131.778V7.2H137.988C137.478 12.48 135.288 16.02 129.978 19.23L132.678 22.62C137.928 19.56 140.628 15.81 141.888 11.22H144.528V14.4H141.288V18.24H144.528V27.18H149.028V0.749999H144.528V7.41ZM150.408 0.179999V28.29H154.998V0.179999H150.408Z" fill="#4C4C4C"/>
<path d="M162.945 8.67C162.945 6.69 164.265 5.73 166.005 5.73C167.775 5.73 169.095 6.69 169.095 8.67C169.095 10.62 167.775 11.61 166.005 11.61C164.265 11.61 162.945 10.62 162.945 8.67ZM173.835 8.67C173.835 4.62 170.415 1.65 166.005 1.65C161.625 1.65 158.205 4.62 158.205 8.67C158.205 12.72 161.625 15.66 166.005 15.66C170.415 15.66 173.835 12.72 173.835 8.67ZM161.475 21.6H175.665V28.35H180.525V17.79H161.475V21.6ZM183.885 7.44V3.54H180.525V0.209999H175.665V16.74H180.525V13.56H183.885V9.66H180.525V7.44H183.885Z" fill="#4C4C4C"/>
<path d="M202.273 2.01H196.453V0H191.593V2.01H185.743V5.58H202.303L202.273 2.01ZM191.653 10.56C191.653 9.66 192.523 9.33 194.023 9.33C195.523 9.33 196.393 9.66 196.393 10.56C196.393 11.43 195.523 11.76 194.023 11.76C192.523 11.76 191.653 11.43 191.653 10.56ZM201.043 10.56C201.043 7.74 198.253 5.94 194.023 5.94C189.793 5.94 187.003 7.74 187.003 10.56C187.003 13.38 189.793 15.15 194.023 15.15C198.253 15.15 201.043 13.38 201.043 10.56ZM193.963 23.79H208.123V16.17H189.133V19.65H203.323V20.55H189.163V28.23H208.843V24.72H193.963V23.79ZM208.123 5.79V0.209999H203.263V15.24H208.123V9.69H211.633V5.79H208.123Z" fill="#4C4C4C"/>
<path d="M224.846 7.26H226.406V3.45H220.526V21.84H221.846C223.466 21.84 224.786 21.81 226.646 21.42L226.316 17.52C225.776 17.64 225.326 17.7 224.846 17.76V7.26ZM231.656 7.26H233.456V3.45H227.336V21.84H228.716C230.456 21.84 231.956 21.81 233.966 21.42L233.666 17.52C232.916 17.67 232.286 17.73 231.656 17.79V7.26ZM240.446 0.179999V10.77H239.096V0.54H234.686V27.12H239.096V14.61H240.446V28.32H244.946V0.179999H240.446Z" fill="#4C4C4C"/>
<path d="M19.2 56.4277V86.6357H24.384V56.4277H19.2ZM8.032 58.4437C3.424 58.4437 0 62.6037 0 69.3237C0 76.0437 3.424 80.2037 8.032 80.2037C12.64 80.2037 16.064 76.0437 16.064 69.3237C16.064 62.6037 12.64 58.4437 8.032 58.4437ZM8.032 63.1477C9.888 63.1477 11.104 65.0997 11.104 69.3237C11.104 73.5477 9.888 75.4997 8.032 75.4997C6.176 75.4997 4.96 73.5477 4.96 69.3237C4.96 65.0997 6.176 63.1477 8.032 63.1477Z" fill="#FF5A56"/>
<path d="M55.022 66.9877H44.078V64.6197H55.022V66.9877ZM60.142 57.6117H55.022V60.6197H44.078V57.6117H38.958V71.0517H60.142V57.6117ZM63.214 73.5157H36.046V77.5477H46.926V86.5397H52.11V77.5477H63.214V73.5157Z" fill="#FF5A56"/>
<path d="M84.1075 65.9957H73.9315V63.9477H84.1075V65.9957ZM89.2275 57.4517H84.1075V60.1077H73.9315V57.4517H68.8115V69.9637H89.2275V57.4517ZM73.6115 77.7717H68.4275V86.0917H89.6755V82.0277H73.6115V77.7717ZM65.4515 71.5957V75.6277H76.9075V79.8197H82.0915V75.6277H92.6515V71.5957H65.4515Z" fill="#FF5A56"/>
<path d="M105.242 71.4997C110.682 70.8277 114.073 68.7797 115.833 65.9637C117.593 68.7797 121.018 70.8277 126.458 71.4997L128.313 67.4677C122.041 66.7637 119.577 64.2357 119.034 61.8997H127.001V57.8677H104.569V61.8997H112.665C112.121 64.2357 109.657 66.7637 103.385 67.4677L105.242 71.4997ZM129.434 72.7797H102.233V76.8437H113.113V86.5717H118.298V76.8437H129.434V72.7797Z" fill="#FF5A56"/>
<path d="M141.239 58.4117C136.535 58.4117 132.855 61.6117 132.855 65.9637C132.855 70.3477 136.535 73.5477 141.239 73.5477C145.975 73.5477 149.655 70.3477 149.655 65.9637C149.655 61.6117 145.975 58.4117 141.239 58.4117ZM141.239 62.7957C143.127 62.7957 144.599 63.8517 144.599 65.9637C144.599 68.1077 143.127 69.1637 141.239 69.1637C139.383 69.1637 137.911 68.1077 137.911 65.9637C137.911 63.8517 139.383 62.7957 141.239 62.7957ZM151.863 56.4597V86.6037H157.047V56.4597H151.863ZM132.343 80.7797C137.463 80.7797 144.343 80.6837 150.743 79.4037L150.391 75.7237C144.151 76.5877 136.951 76.6517 131.767 76.6517L132.343 80.7797Z" fill="#FF5A56"/>
<path d="M168.18 76.0757C166.932 76.0757 166.068 75.1157 166.068 73.0357C166.068 70.9877 166.932 69.9957 168.18 69.9957C169.428 69.9957 170.292 70.9877 170.292 73.0357C170.292 75.1157 169.428 76.0757 168.18 76.0757ZM168.18 65.7397C164.308 65.7397 161.524 68.7477 161.524 73.0357C161.524 77.3237 164.308 80.3317 168.18 80.3317C172.052 80.3317 174.837 77.3237 174.837 73.0357C174.837 68.7477 172.052 65.7397 168.18 65.7397ZM170.74 57.2597H165.652V60.6837H161.076V64.7477H175.156V60.6837H170.74V57.2597ZM182.197 56.4917V68.4597H180.757V56.9717H175.956V85.3557H180.757V72.5877H182.197V86.4757H187.092V56.4917H182.197Z" fill="#FF5A56"/>
<path d="M198.578 75.4997C196.722 75.4997 195.506 73.5477 195.506 69.3237C195.506 65.0997 196.722 63.1477 198.578 63.1477C200.466 63.1477 201.682 65.0997 201.682 69.3237C201.682 73.5477 200.466 75.4997 198.578 75.4997ZM198.578 58.4437C193.97 58.4437 190.514 62.6037 190.514 69.3237C190.514 76.0437 193.97 80.2037 198.578 80.2037C203.218 80.2037 206.674 76.0437 206.674 69.3237C206.674 62.6037 203.218 58.4437 198.578 58.4437ZM218.066 67.4037V63.2117H214.29V56.5237H209.106V86.5077H214.29V76.1077H218.066V71.9157H214.29V67.4037H218.066Z" fill="#FF5A56"/>
<path d="M234.368 76.0757C233.12 76.0757 232.256 75.1157 232.256 73.0357C232.256 70.9877 233.12 69.9957 234.368 69.9957C235.616 69.9957 236.48 70.9877 236.48 73.0357C236.48 75.1157 235.616 76.0757 234.368 76.0757ZM234.368 65.7397C230.496 65.7397 227.712 68.7477 227.712 73.0357C227.712 77.3237 230.496 80.3317 234.368 80.3317C238.24 80.3317 241.024 77.3237 241.024 73.0357C241.024 68.7477 238.24 65.7397 234.368 65.7397ZM236.928 57.2597H231.84V60.6837H227.264V64.7477H241.344V60.6837H236.928V57.2597ZM248.384 56.4917V68.4597H246.944V56.9717H242.144V85.3557H246.944V72.5877H248.384V86.4757H253.28V56.4917H248.384Z" fill="#FF5A56"/>
<path d="M267.486 73.9957C268.382 74.1557 269.342 74.2197 270.302 74.2197C271.262 74.2197 272.222 74.1557 273.118 73.9957V79.0837H267.486V73.9957ZM270.302 61.7397C274.142 61.7397 276.574 63.2117 276.574 65.9957C276.574 68.7477 274.142 70.2517 270.302 70.2517C266.462 70.2517 264.03 68.7477 264.03 65.9957C264.03 63.2117 266.462 61.7397 270.302 61.7397ZM278.27 79.0837V72.1077C280.413 70.6677 281.694 68.5557 281.694 65.9957C281.694 60.9717 276.83 57.7397 270.302 57.7397C263.774 57.7397 258.91 60.9717 258.91 65.9957C258.91 68.5557 260.19 70.6677 262.334 72.1077V79.0837H256.734V83.2117H283.902V79.0837H278.27Z" fill="#FF5A56"/>
<path d="M289.531 74.8597H293.211L294.043 64.0437L294.235 58.9557H288.507L288.699 64.0437L289.531 74.8597ZM291.355 83.9477C293.339 83.9477 294.747 82.3797 294.747 80.3957C294.747 78.4117 293.339 76.8757 291.355 76.8757C289.403 76.8757 287.995 78.4117 287.995 80.3957C287.995 82.3797 289.403 83.9477 291.355 83.9477Z" fill="#FF5A56"/>
<circle cx="11.6883" cy="45.2508" r="2.7508" fill="#FF5A56"/>
<circle cx="79.6883" cy="45.2508" r="2.7508" fill="#FF5A56"/>
<circle cx="50.6883" cy="45.2508" r="2.7508" fill="#FF5A56"/>
<path d="M53.4531 159.341V161.194H67.6991V159.341H53.4531ZM54.5411 148.631V150.433H66.5261V148.631H54.5411ZM54.6091 155.142V156.961H66.4751V155.142H54.6091ZM56.6831 150.297V155.312H58.9441V150.297H56.6831ZM62.1401 150.297V155.312H64.3841V150.297H62.1401Z" fill="#636363"/>
<path d="M69.0748 155.074V156.859H83.3378V155.074H69.0748ZM75.0758 153.51V155.924H77.3368V153.51H75.0758ZM70.8768 157.437V162.843H81.6718V157.437H79.4448V158.423H73.1038V157.437H70.8768ZM73.1038 160.106H79.4448V161.109H73.1038V160.106ZM70.8258 147.509V149.209H79.3768V150.008H70.8428V153.391H73.0868V151.606H81.6038V147.509H70.8258ZM70.8428 152.456V154.156H81.9098V152.456H70.8428Z" fill="#636363"/>
<path d="M90.5615 148.172V149.311C90.5615 151.572 88.6065 154.071 85.0535 154.683L86.0225 156.553C90.1025 155.754 92.5335 152.728 92.5335 149.311V148.172H90.5615ZM91.0205 148.172V149.311C91.0205 152.779 93.4345 155.754 97.5145 156.553L98.4835 154.683C94.9135 154.071 92.9755 151.623 92.9755 149.311V148.172H91.0205ZM84.7305 159.256V161.092H98.9765V159.256H84.7305Z" fill="#636363"/>
<path d="M106.642 153.068V154.887H109.226V153.068H106.642ZM111.725 147.271V163.013H113.884V147.271H111.725ZM108.512 147.509V162.299H110.637V147.509H108.512ZM103.888 148.376C101.814 148.376 100.488 150.535 100.488 154.088C100.488 157.658 101.814 159.817 103.888 159.817C105.979 159.817 107.322 157.658 107.322 154.088C107.322 150.535 105.979 148.376 103.888 148.376ZM103.888 150.501C104.772 150.501 105.265 151.691 105.265 154.088C105.265 156.502 104.772 157.675 103.888 157.675C103.038 157.675 102.545 156.502 102.545 154.088C102.545 151.691 103.038 150.501 103.888 150.501Z" fill="#636363"/>
<path d="M123.93 152.184V154.003H128.078V152.184H123.93ZM119.646 148.478V150.756C119.646 153.748 118.456 156.791 115.77 158.032L117.181 159.851C120.139 158.372 121.482 154.717 121.482 150.756V148.478H119.646ZM120.122 148.478V150.756C120.122 154.683 121.363 158.151 124.321 159.579L125.664 157.777C123.063 156.621 121.924 153.748 121.924 150.756V148.478H120.122ZM126.956 147.254V163.047H129.2V147.254H126.956Z" fill="#636363"/>
<path d="M135.481 156.077V157.879H149.744V156.077H135.481ZM141.431 157.233V163.013H143.675V157.233H141.431ZM137.13 148.036V154.394H148.044V148.036H137.13ZM145.817 149.821V152.609H139.357V149.821H145.817Z" fill="#636363"/>
<path d="M154.741 156.451V160.157H156.951V156.451H154.741ZM159.722 156.434V160.157H161.932V156.434H159.722ZM151.137 159.443V161.279H165.383V159.443H151.137ZM152.735 148.291V150.076H161.541V151.742H152.769V156.179H155.013V153.51H163.785V148.291H152.735ZM152.769 155.227V157.046H164.142V155.227H152.769Z" fill="#636363"/>
<path d="M166.775 159.443V161.279H181.021V159.443H166.775ZM172.742 156.468V160.191H175.003V156.468H172.742ZM168.373 148.291V150.076H177.179V151.759H168.407V156.179H170.651V153.527H179.423V148.291H168.373ZM168.407 155.278V157.097H179.78V155.278H168.407Z" fill="#636363"/>
<path d="M196.381 147.271V156.451H198.642V147.271H196.381ZM198.013 150.841V152.694H200.733V150.841H198.013ZM186.708 148.189V155.686H194.273V148.189H192.029V150.178H188.952V148.189H186.708ZM188.952 151.912H192.029V153.918H188.952V151.912ZM188.408 157.148V162.316H190.669V158.933H198.727V157.148H188.408ZM188.408 161.041V162.826H199.033V161.041H188.408Z" fill="#636363"/>
<path d="M206.103 148.359C203.706 148.359 201.972 150.535 201.972 153.969C201.972 157.437 203.706 159.613 206.103 159.613C208.5 159.613 210.234 157.437 210.234 153.969C210.234 150.535 208.5 148.359 206.103 148.359ZM206.103 150.416C207.276 150.416 208.075 151.657 208.075 153.969C208.075 156.315 207.276 157.573 206.103 157.573C204.93 157.573 204.148 156.315 204.148 153.969C204.148 151.657 204.93 150.416 206.103 150.416ZM211.951 147.271V163.013H214.229V147.271H211.951ZM213.719 153.204V155.074H216.507V153.204H213.719Z" fill="#636363"/>
<path d="M217.543 159.358V161.194H231.789V159.358H217.543ZM223.51 155.992V159.8H225.771V155.992H223.51ZM219.039 148.274V156.468H230.242V148.274H227.998V150.688H221.283V148.274H219.039ZM221.283 152.456H227.998V154.666H221.283V152.456Z" fill="#636363"/>
<path d="M234.933 151.521V153.306H245.847V151.521H234.933ZM233.165 154.938V156.74H247.428V154.938H233.165ZM234.933 147.832V152.405H237.177V147.832H234.933ZM234.78 160.871V162.673H245.932V160.871H234.78ZM234.78 157.998V161.347H237.041V157.998H234.78Z" fill="#636363"/>
<path d="M57.4039 186.077V187.896H71.6669V186.077H57.4039ZM63.3539 187.25V193.03H65.5979V187.25H63.3539ZM64.4929 177.798C61.1439 177.798 58.8149 179.192 58.8149 181.351C58.8149 183.493 61.1439 184.87 64.4929 184.87C67.8589 184.87 70.1879 183.493 70.1879 181.351C70.1879 179.192 67.8589 177.798 64.4929 177.798ZM64.4929 179.6C66.5669 179.6 67.8589 180.212 67.8589 181.351C67.8589 182.473 66.5669 183.085 64.4929 183.085C62.4359 183.085 61.1269 182.473 61.1269 181.351C61.1269 180.212 62.4359 179.6 64.4929 179.6Z" fill="#636363"/>
<path d="M83.8886 177.254V193.047H86.1496V177.254H83.8886ZM73.8926 187.539V189.375H75.2866C78.1596 189.375 80.4716 189.29 83.0216 188.831L82.8006 187.012C80.3016 187.437 78.0746 187.539 75.2866 187.539H73.8926ZM73.8756 178.597V180.399H78.9926V182.898H73.8926V188.219H76.1876V184.683H81.3046V178.597H73.8756Z" fill="#636363"/>
<path d="M96.3578 178.631V179.6C96.3578 181.453 95.2188 183.357 92.5838 184.122L93.7228 185.89C96.7488 184.972 98.2108 182.422 98.2108 179.6V178.631H96.3578ZM96.8168 178.631V179.6C96.8168 182.32 98.2788 184.751 101.254 185.618L102.359 183.867C99.8088 183.136 98.6698 181.351 98.6698 179.6V178.631H96.8168ZM93.1958 178.121V179.906H101.764V178.121H93.1958ZM103.345 177.271V185.805H105.623V177.271H103.345ZM95.1508 186.485V192.843H105.623V186.485H103.379V187.913H97.3778V186.485H95.1508ZM97.3778 189.664H103.379V191.041H97.3778V189.664Z" fill="#636363"/>
<path d="M112.482 178.274V185.21H119.979V178.274H112.482ZM117.752 180.059V183.425H114.709V180.059H117.752ZM122.155 177.271V186.077H124.416V177.271H122.155ZM123.787 180.688V182.524H126.507V180.688H123.787ZM118.143 187.658V188.032C118.143 189.392 116.681 190.854 113.4 191.245L114.216 192.962C118.024 192.469 120.047 190.48 120.047 188.032V187.658H118.143ZM118.636 187.658V188.032C118.636 190.412 120.676 192.503 124.484 192.996L125.283 191.279C122.053 190.854 120.557 189.341 120.557 188.032V187.658H118.636ZM114.063 186.825V188.593H124.62V186.825H114.063Z" fill="#636363"/>
<path d="M133.646 186.264V188.593H135.89V186.264H133.646ZM127.662 184.819V186.604H141.891V184.819H127.662ZM133.646 177.271V179.6H135.89V177.271H133.646ZM133.51 179.702V180.008C133.51 181.181 132.065 182.371 128.257 182.575L128.903 184.258C133.221 183.969 135.499 182.354 135.499 180.008V179.702H133.51ZM134.037 179.702V180.008C134.037 182.354 136.315 183.969 140.633 184.258L141.279 182.575C137.471 182.371 136.026 181.181 136.026 180.008V179.702H134.037ZM129.022 178.631V180.382H140.531V178.631H129.022ZM129.311 187.811V192.843H140.191V187.811H129.311ZM137.981 189.579V191.058H131.538V189.579H137.981Z" fill="#636363"/>
<path d="M152.191 180.722V182.524H155.081V180.722H152.191ZM152.157 183.867V185.669H155.03V183.867H152.157ZM143.351 178.682V180.467H151.987V178.682H143.351ZM147.771 181.011C145.612 181.011 144.082 182.201 144.082 183.952C144.082 185.703 145.612 186.893 147.771 186.893C149.93 186.893 151.46 185.703 151.46 183.952C151.46 182.201 149.93 181.011 147.771 181.011ZM147.771 182.694C148.706 182.694 149.369 183.119 149.369 183.952C149.369 184.785 148.706 185.21 147.771 185.21C146.819 185.21 146.19 184.785 146.19 183.952C146.19 183.119 146.819 182.694 147.771 182.694ZM146.649 177.135V179.923H148.91V177.135H146.649ZM154.214 177.271V187.301H156.475V177.271H154.214ZM151.154 187.488C147.822 187.488 145.765 188.525 145.765 190.259C145.765 191.993 147.822 193.013 151.154 193.013C154.469 193.013 156.543 191.993 156.543 190.259C156.543 188.525 154.469 187.488 151.154 187.488ZM151.154 189.222C153.092 189.222 154.146 189.528 154.146 190.259C154.146 190.973 153.092 191.313 151.154 191.313C149.216 191.313 148.145 190.973 148.145 190.259C148.145 189.528 149.216 189.222 151.154 189.222Z" fill="#636363"/>
<path d="M162.791 185.329V187.114H177.037V185.329H162.791ZM168.962 186.281V189.596H171.24V186.281H168.962ZM164.44 190.939V192.741H175.473V190.939H164.44ZM164.44 188.406V191.704H166.684V188.406H164.44ZM164.61 177.764V184.241H175.218V177.764H172.974V179.379H166.837V177.764H164.61ZM166.837 181.079H172.974V182.473H166.837V181.079Z" fill="#636363"/>
<path d="M186.47 180.195V182.031H189.666V180.195H186.47ZM182.033 178.087V179.566C182.033 181.691 180.962 183.765 178.327 184.632L179.517 186.417C182.509 185.38 183.886 182.677 183.886 179.566V178.087H182.033ZM182.492 178.087V179.702C182.492 182.609 183.801 185.159 186.657 186.145L187.83 184.377C185.365 183.578 184.311 181.657 184.311 179.702V178.087H182.492ZM180.877 187.352V189.137H189.343V193.013H191.604V187.352H180.877ZM189.343 177.271V186.638H191.604V177.271H189.343Z" fill="#636363"/>
<path d="M208.766 177.254V193.047H211.027V177.254H208.766ZM198.77 187.539V189.375H200.164C203.037 189.375 205.349 189.29 207.899 188.831L207.678 187.012C205.179 187.437 202.952 187.539 200.164 187.539H198.77ZM198.753 178.597V180.399H203.87V182.898H198.77V188.219H201.065V184.683H206.182V178.597H198.753Z" fill="#636363"/>
<path d="M213.575 189.409V191.262H227.821V189.409H213.575ZM219.525 185.856V190.242H221.786V185.856H219.525ZM214.663 178.563V180.365H226.648V178.563H214.663ZM214.731 184.836V186.604H226.597V184.836H214.731ZM216.805 180.059V185.04H219.066V180.059H216.805ZM222.262 180.059V185.04H224.506V180.059H222.262Z" fill="#636363"/>
<path d="M230.88 185.38V187.148H241.947V185.38H230.88ZM229.214 189.375V191.211H243.46V189.375H229.214ZM230.88 178.41V185.873H233.175V180.229H241.811V178.41H230.88ZM232.478 181.878V183.629H241.454V181.878H232.478Z" fill="#636363"/>
</svg>
