<svg width="9" height="11" viewBox="0 0 9 11" fill="none" xmlns="http://www.w3.org/2000/svg">
<path d="M7.14062 5.40791L7.71026 6.24045C7.98507 6.05242 8.14939 5.74089 8.14939 5.40791C8.14939 5.07493 7.98507 4.7634 7.71026 4.57537L7.14062 5.40791ZM0.713848 8.58289C0.254048 8.89749 0.13634 9.52526 0.45094 9.98506C0.76554 10.4449 1.39331 10.5626 1.85311 10.248L0.713848 8.58289ZM1.85312 0.567849C1.39332 0.25325 0.765541 0.370957 0.450941 0.830757C0.136341 1.29056 0.254049 1.91833 0.713848 2.23293L1.85312 0.567849ZM6.57099 4.57537L0.713848 8.58289L1.85311 10.248L7.71026 6.24045L6.57099 4.57537ZM0.713848 2.23293L6.57099 6.24045L7.71026 4.57537L1.85312 0.567849L0.713848 2.23293Z" fill="#FF5A56"/>
</svg>
