<svg width="9" height="11" viewBox="0 0 9 11" fill="none" xmlns="http://www.w3.org/2000/svg">
<path d="M7 5.50002L7.81317 6.3132C8.26228 5.86409 8.26228 5.13595 7.81317 4.68685L7 5.50002ZM2.08683 8.78685C1.63772 9.23595 1.63772 9.96409 2.08683 10.4132C2.53593 10.8623 3.26407 10.8623 3.71317 10.4132L2.08683 8.78685ZM3.71317 0.586852C3.26407 0.137749 2.53593 0.137748 2.08683 0.586851C1.63772 1.03595 1.63772 1.76409 2.08683 2.2132L3.71317 0.586852ZM6.18683 4.68685L2.08683 8.78685L3.71317 10.4132L7.81317 6.3132L6.18683 4.68685ZM2.08683 2.2132L6.18683 6.3132L7.81317 4.68685L3.71317 0.586852L2.08683 2.2132Z" fill="#4680FF"/>
</svg>
