<svg width="92" height="21" viewBox="0 0 92 21" fill="none" xmlns="http://www.w3.org/2000/svg">
<path d="M7.35034 0.694999H2.51734C0.951341 0.694999 0.438341 1.181 0.438341 2.693V18.893C0.438341 19.676 1.08634 20.027 1.78834 20.027C2.51734 20.027 3.16534 19.676 3.16534 18.893V12.386H7.32334C11.6973 12.386 13.8843 9.956 13.8843 6.635V6.23C13.8843 2.909 11.8323 0.694999 7.35034 0.694999ZM3.16534 10.091V2.99H7.26934C9.80734 2.99 11.1843 3.962 11.1843 6.284V6.608C11.1843 9.011 9.80734 10.091 6.99934 10.091H3.16534ZM26.0356 0.694999H21.2296C19.6636 0.694999 19.1506 1.181 19.1506 2.693V18.893C19.1506 19.676 19.7986 20.027 20.5006 20.027C21.2296 20.027 21.8776 19.676 21.8776 18.893V11.954H25.4686C25.7656 11.954 26.0896 11.954 26.3596 11.9L30.1936 19.379C30.5446 20.108 31.2736 20.162 31.9756 19.865C32.6236 19.541 32.8936 18.893 32.5156 18.164L28.9516 11.468C31.0846 10.712 32.3806 9.065 32.3806 6.527V6.068C32.3806 2.612 30.0046 0.694999 26.0356 0.694999ZM21.8776 9.659V2.99H25.7386C28.4386 2.99 29.7076 4.043 29.7076 6.122V6.5C29.7076 8.552 28.4386 9.659 25.4686 9.659H21.8776ZM45.8648 0.398C40.6808 0.398 37.8458 3.368 37.8458 9.659V10.928C37.8458 17.219 40.6808 20.189 45.8648 20.189C51.0488 20.189 53.8838 17.219 53.8838 10.928V9.659C53.8838 3.368 51.0488 0.398 45.8648 0.398ZM45.8648 2.855C49.4288 2.855 51.1568 4.88 51.1568 9.875V10.712C51.1568 15.707 49.4288 17.705 45.8648 17.705C42.3008 17.705 40.5728 15.707 40.5728 10.712V9.875C40.5728 4.88 42.3008 2.855 45.8648 2.855ZM66.5985 0.694999H61.7655C60.1995 0.694999 59.6865 1.181 59.6865 2.693V18.893C59.6865 19.676 60.3345 20.027 61.0365 20.027C61.7655 20.027 62.4135 19.676 62.4135 18.893V12.386H66.5715C70.9455 12.386 73.1325 9.956 73.1325 6.635V6.23C73.1325 2.909 71.0805 0.694999 66.5985 0.694999ZM62.4135 10.091V2.99H66.5175C69.0555 2.99 70.4325 3.962 70.4325 6.284V6.608C70.4325 9.011 69.0555 10.091 66.2475 10.091H62.4135ZM84.5817 0.398C80.3967 0.398 77.9397 2.639 77.9397 5.609V5.933C77.9397 9.281 79.9377 10.496 84.1767 11.36C87.4977 12.062 88.5507 12.818 88.5507 14.627V14.924C88.5507 16.544 87.1467 17.759 84.4737 17.759C82.6377 17.759 81.0177 17.246 79.6407 16.409C79.0197 16.031 78.4257 16.193 78.0207 16.814C77.6157 17.435 77.6967 18.164 78.3717 18.569C79.8297 19.541 82.0707 20.189 84.3387 20.189C88.7667 20.189 91.2507 18.137 91.2507 14.762V14.384C91.2507 11.468 89.6307 9.902 84.8787 8.903C81.5307 8.174 80.6127 7.445 80.6127 5.852V5.582C80.6127 4.097 82.1517 2.828 84.6357 2.828C86.2017 2.828 87.4167 3.098 88.5507 3.665C89.1447 3.935 89.7387 3.8 90.0897 3.152C90.4407 2.531 90.2517 1.829 89.6307 1.505C88.3347 0.776 86.6067 0.398 84.5817 0.398Z" fill="#5087FF"/>
<path d="M3.16534 12.386V11.6346H2.41393V12.386H3.16534ZM3.16534 10.091H2.41393V10.8424H3.16534V10.091ZM3.16534 2.99V2.23859H2.41393V2.99H3.16534ZM7.35034 -0.0564132H2.51734V1.44641H7.35034V-0.0564132ZM2.51734 -0.0564132C1.7028 -0.0564132 0.919102 0.0589228 0.370686 0.584488C-0.187256 1.11918 -0.313072 1.89401 -0.313072 2.693H1.18975C1.18975 1.97999 1.32043 1.75582 1.4105 1.66951C1.51008 1.57408 1.76588 1.44641 2.51734 1.44641V-0.0564132ZM-0.313072 2.693V18.893H1.18975V2.693H-0.313072ZM-0.313072 18.893C-0.313072 19.521 -0.0395279 20.0286 0.401855 20.3567C0.815781 20.6644 1.32505 20.7784 1.78834 20.7784V19.2756C1.54963 19.2756 1.3839 19.2141 1.29832 19.1505C1.2597 19.1218 1.23701 19.0931 1.22225 19.0637C1.20761 19.0345 1.18975 18.9826 1.18975 18.893H-0.313072ZM1.78834 20.7784C2.26003 20.7784 2.77577 20.6667 3.19457 20.3596C3.64238 20.0312 3.91675 19.5218 3.91675 18.893H2.41393C2.41393 18.9827 2.39607 19.0338 2.38181 19.0621C2.36747 19.0905 2.34515 19.1189 2.30586 19.1477C2.21841 19.2118 2.04566 19.2756 1.78834 19.2756V20.7784ZM3.91675 18.893V12.386H2.41393V18.893H3.91675ZM3.16534 13.1374H7.32334V11.6346H3.16534V13.1374ZM7.32334 13.1374C9.64697 13.1374 11.4897 12.4902 12.7573 11.3047C14.0293 10.1152 14.6358 8.46423 14.6358 6.635H13.1329C13.1329 8.12677 12.6459 9.35129 11.7308 10.2071C10.8115 11.0668 9.37371 11.6346 7.32334 11.6346V13.1374ZM14.6358 6.635V6.23H13.1329V6.635H14.6358ZM14.6358 6.23C14.6358 4.41146 14.0691 2.8033 12.8015 1.6593C11.5451 0.525344 9.70597 -0.0564132 7.35034 -0.0564132V1.44641C9.47672 1.44641 10.9046 1.97165 11.7946 2.77495C12.6736 3.5682 13.1329 4.72753 13.1329 6.23H14.6358ZM3.91675 10.091V2.99H2.41393V10.091H3.91675ZM3.16534 3.74141H7.26934V2.23859H3.16534V3.74141ZM7.26934 3.74141C8.465 3.74141 9.2395 3.97438 9.70701 4.35125C10.1413 4.70136 10.4329 5.27678 10.4329 6.284H11.9358C11.9358 4.96922 11.5389 3.89764 10.6502 3.18125C9.79468 2.49161 8.61168 2.23859 7.26934 2.23859V3.74141ZM10.4329 6.284V6.608H11.9358V6.284H10.4329ZM10.4329 6.608C10.4329 7.66353 10.1365 8.28558 9.66825 8.66969C9.16864 9.07957 8.33006 9.33959 6.99934 9.33959V10.8424C8.47662 10.8424 9.73054 10.5624 10.6214 9.83156C11.5437 9.07492 11.9358 7.95547 11.9358 6.608H10.4329ZM6.99934 9.33959H3.16534V10.8424H6.99934V9.33959ZM21.8776 11.954V11.2026H21.1262V11.954H21.8776ZM26.3596 11.9L27.0283 11.5572L26.7692 11.0518L26.2122 11.1632L26.3596 11.9ZM30.1936 19.379L30.8706 19.053L30.8666 19.0446L30.8623 19.0362L30.1936 19.379ZM31.9756 19.865L32.2684 20.557L32.2903 20.5477L32.3116 20.5371L31.9756 19.865ZM32.5156 18.164L33.1827 17.8181L33.1789 17.8109L32.5156 18.164ZM28.9516 11.468L28.7006 10.7598L27.8785 11.0511L28.2883 11.821L28.9516 11.468ZM21.8776 9.659H21.1262V10.4104H21.8776V9.659ZM21.8776 2.99V2.23859H21.1262V2.99H21.8776ZM26.0356 -0.0564132H21.2296V1.44641H26.0356V-0.0564132ZM21.2296 -0.0564132C20.4151 -0.0564132 19.6314 0.0589228 19.083 0.584488C18.525 1.11918 18.3992 1.89401 18.3992 2.693H19.902C19.902 1.97999 20.0327 1.75582 20.1228 1.66951C20.2223 1.57408 20.4781 1.44641 21.2296 1.44641V-0.0564132ZM18.3992 2.693V18.893H19.902V2.693H18.3992ZM18.3992 18.893C18.3992 19.521 18.6727 20.0286 19.1141 20.3567C19.528 20.6644 20.0373 20.7784 20.5006 20.7784V19.2756C20.2619 19.2756 20.0962 19.2141 20.0106 19.1505C19.972 19.1218 19.9493 19.0931 19.9345 19.0637C19.9199 19.0345 19.902 18.9826 19.902 18.893H18.3992ZM20.5006 20.7784C20.9723 20.7784 21.488 20.6667 21.9068 20.3596C22.3546 20.0312 22.629 19.5218 22.629 18.893H21.1262C21.1262 18.9827 21.1083 19.0338 21.0941 19.0621C21.0797 19.0905 21.0574 19.1189 21.0181 19.1477C20.9307 19.2118 20.7579 19.2756 20.5006 19.2756V20.7784ZM22.629 18.893V11.954H21.1262V18.893H22.629ZM21.8776 12.7054H25.4686V11.2026H21.8776V12.7054ZM25.4686 12.7054C25.7455 12.7054 26.1496 12.7083 26.507 12.6368L26.2122 11.1632C26.0296 11.1997 25.7857 11.2026 25.4686 11.2026V12.7054ZM25.6909 12.2428L29.5249 19.7218L30.8623 19.0362L27.0283 11.5572L25.6909 12.2428ZM29.5166 19.705C29.7889 20.2706 30.2459 20.6233 30.795 20.7414C31.3085 20.8518 31.8289 20.743 32.2684 20.557L31.6828 19.173C31.4203 19.284 31.2253 19.2967 31.111 19.2721C31.0323 19.2552 30.9493 19.2164 30.8706 19.053L29.5166 19.705ZM32.3116 20.5371C32.7768 20.3045 33.1638 19.9245 33.3407 19.4113C33.5199 18.8917 33.4499 18.3335 33.1827 17.8181L31.8485 18.5099C31.9593 18.7235 31.9433 18.8538 31.92 18.9214C31.8944 18.9955 31.8224 19.1015 31.6396 19.1929L32.3116 20.5371ZM33.1789 17.8109L29.6149 11.1149L28.2883 11.821L31.8523 18.517L33.1789 17.8109ZM29.2026 12.1762C30.3876 11.7562 31.3816 11.0727 32.0766 10.1037C32.7726 9.13328 33.132 7.92766 33.132 6.527H31.6292C31.6292 7.66434 31.3406 8.55122 30.8554 9.22782C30.3691 9.90581 29.6486 10.4238 28.7006 10.7598L29.2026 12.1762ZM33.132 6.527V6.068H31.6292V6.527H33.132ZM33.132 6.068C33.132 4.15525 32.4664 2.58562 31.1784 1.50898C29.91 0.448674 28.1304 -0.0564132 26.0356 -0.0564132V1.44641C27.9098 1.44641 29.3027 1.89982 30.2146 2.66202C31.1068 3.40788 31.6292 4.52475 31.6292 6.068H33.132ZM22.629 9.659V2.99H21.1262V9.659H22.629ZM21.8776 3.74141H25.7386V2.23859H21.8776V3.74141ZM25.7386 3.74141C27.0124 3.74141 27.8036 3.99349 28.2666 4.36342C28.696 4.70649 28.9562 5.24327 28.9562 6.122H30.459C30.459 4.92173 30.0848 3.89251 29.2046 3.18932C28.3581 2.513 27.1648 2.23859 25.7386 2.23859V3.74141ZM28.9562 6.122V6.5H30.459V6.122H28.9562ZM28.9562 6.5C28.9562 7.36083 28.6992 7.90065 28.2417 8.25493C27.745 8.63966 26.8836 8.90759 25.4686 8.90759V10.4104C27.0236 10.4104 28.2817 10.1248 29.162 9.44307C30.0815 8.73085 30.459 7.69116 30.459 6.5H28.9562ZM25.4686 8.90759H21.8776V10.4104H25.4686V8.90759ZM45.8648 -0.353413C43.1288 -0.353413 40.8897 0.434743 39.3493 2.17063C37.8235 3.88993 37.0944 6.41555 37.0944 9.659H38.5972C38.5972 6.61145 39.2855 4.50657 40.4733 3.16812C41.6464 1.84626 43.4168 1.14941 45.8648 1.14941V-0.353413ZM37.0944 9.659V10.928H38.5972V9.659H37.0944ZM37.0944 10.928C37.0944 14.1714 37.8235 16.6971 39.3493 18.4164C40.8897 20.1523 43.1288 20.9404 45.8648 20.9404V19.4376C43.4168 19.4376 41.6464 18.7407 40.4733 17.4189C39.2855 16.0804 38.5972 13.9756 38.5972 10.928H37.0944ZM45.8648 20.9404C48.6008 20.9404 50.8399 20.1523 52.3803 18.4164C53.906 16.6971 54.6352 14.1714 54.6352 10.928H53.1324C53.1324 13.9756 52.444 16.0804 51.2563 17.4189C50.0832 18.7407 48.3128 19.4376 45.8648 19.4376V20.9404ZM54.6352 10.928V9.659H53.1324V10.928H54.6352ZM54.6352 9.659C54.6352 6.41555 53.906 3.88993 52.3803 2.17063C50.8399 0.434743 48.6008 -0.353413 45.8648 -0.353413V1.14941C48.3128 1.14941 50.0832 1.84626 51.2563 3.16812C52.444 4.50657 53.1324 6.61145 53.1324 9.659H54.6352ZM45.8648 3.60641C47.5001 3.60641 48.5638 4.06371 49.2537 4.95258C49.9779 5.88567 50.4054 7.43569 50.4054 9.875H51.9082C51.9082 7.31931 51.4717 5.35933 50.4409 4.03117C49.3758 2.65879 47.7934 2.10359 45.8648 2.10359V3.60641ZM50.4054 9.875V10.712H51.9082V9.875H50.4054ZM50.4054 10.712C50.4054 13.1516 49.9777 14.6936 49.255 15.6192C48.5664 16.5012 47.5032 16.9536 45.8648 16.9536V18.4564C47.7904 18.4564 49.3732 17.9098 50.4396 16.5441C51.4718 15.2219 51.9082 13.2674 51.9082 10.712H50.4054ZM45.8648 16.9536C44.2264 16.9536 43.1632 16.5012 42.4745 15.6192C41.7518 14.6936 41.3242 13.1516 41.3242 10.712H39.8214C39.8214 13.2674 40.2577 15.2219 41.29 16.5441C42.3564 17.9098 43.9392 18.4564 45.8648 18.4564V16.9536ZM41.3242 10.712V9.875H39.8214V10.712H41.3242ZM41.3242 9.875C41.3242 7.43569 41.7517 5.88567 42.4759 4.95258C43.1658 4.06371 44.2294 3.60641 45.8648 3.60641V2.10359C43.9361 2.10359 42.3538 2.65879 41.2887 4.03117C40.2579 5.35933 39.8214 7.31931 39.8214 9.875H41.3242ZM62.4135 12.386V11.6346H61.662V12.386H62.4135ZM62.4135 10.091H61.662V10.8424H62.4135V10.091ZM62.4135 2.99V2.23859H61.662V2.99H62.4135ZM66.5985 -0.0564132H61.7655V1.44641H66.5985V-0.0564132ZM61.7655 -0.0564132C60.9509 -0.0564132 60.1672 0.0589228 59.6188 0.584488C59.0609 1.11918 58.9351 1.89401 58.9351 2.693H60.4379C60.4379 1.97999 60.5686 1.75582 60.6586 1.66951C60.7582 1.57408 61.014 1.44641 61.7655 1.44641V-0.0564132ZM58.9351 2.693V18.893H60.4379V2.693H58.9351ZM58.9351 18.893C58.9351 19.521 59.2086 20.0286 59.65 20.3567C60.0639 20.6644 60.5732 20.7784 61.0365 20.7784V19.2756C60.7978 19.2756 60.632 19.2141 60.5464 19.1505C60.5078 19.1218 60.4851 19.0931 60.4704 19.0637C60.4557 19.0345 60.4379 18.9826 60.4379 18.893H58.9351ZM61.0365 20.7784C61.5081 20.7784 62.0239 20.6667 62.4427 20.3596C62.8905 20.0312 63.1649 19.5218 63.1649 18.893H61.662C61.662 18.9827 61.6442 19.0338 61.6299 19.0621C61.6156 19.0905 61.5933 19.1189 61.554 19.1477C61.4665 19.2118 61.2938 19.2756 61.0365 19.2756V20.7784ZM63.1649 18.893V12.386H61.662V18.893H63.1649ZM62.4135 13.1374H66.5715V11.6346H62.4135V13.1374ZM66.5715 13.1374C68.8951 13.1374 70.7378 12.4902 72.0055 11.3047C73.2774 10.1152 73.8839 8.46423 73.8839 6.635H72.3811C72.3811 8.12677 71.894 9.35129 70.979 10.2071C70.0596 11.0668 68.6218 11.6346 66.5715 11.6346V13.1374ZM73.8839 6.635V6.23H72.3811V6.635H73.8839ZM73.8839 6.23C73.8839 4.41146 73.3172 2.8033 72.0497 1.6593C70.7932 0.525344 68.9541 -0.0564132 66.5985 -0.0564132V1.44641C68.7248 1.44641 70.1527 1.97165 71.0428 2.77495C71.9217 3.5682 72.3811 4.72753 72.3811 6.23H73.8839ZM63.1649 10.091V2.99H61.662V10.091H63.1649ZM62.4135 3.74141H66.5175V2.23859H62.4135V3.74141ZM66.5175 3.74141C67.7131 3.74141 68.4876 3.97438 68.9551 4.35125C69.3894 4.70136 69.6811 5.27678 69.6811 6.284H71.1839C71.1839 4.96922 70.787 3.89764 69.8983 3.18125C69.0428 2.49161 67.8598 2.23859 66.5175 2.23859V3.74141ZM69.6811 6.284V6.608H71.1839V6.284H69.6811ZM69.6811 6.608C69.6811 7.66353 69.3846 8.28558 68.9164 8.66969C68.4168 9.07957 67.5782 9.33959 66.2475 9.33959V10.8424C67.7247 10.8424 68.9787 10.5624 69.8696 9.83156C70.7918 9.07492 71.1839 7.95547 71.1839 6.608H69.6811ZM66.2475 9.33959H62.4135V10.8424H66.2475V9.33959ZM84.1767 11.36L84.3321 10.6248L84.3268 10.6237L84.1767 11.36ZM79.6407 16.409L79.25 17.0509L79.2504 17.0511L79.6407 16.409ZM78.0207 16.814L77.3913 16.4035L78.0207 16.814ZM78.3717 18.569L78.7885 17.9438L78.7737 17.9339L78.7583 17.9247L78.3717 18.569ZM84.8787 8.903L84.7189 9.63723L84.7241 9.63834L84.8787 8.903ZM88.5507 3.665L88.2147 4.33708L88.2271 4.3433L88.2398 4.34906L88.5507 3.665ZM90.0897 3.152L89.4355 2.7822L89.429 2.79411L90.0897 3.152ZM89.6307 1.505L89.2623 2.15991L89.2727 2.16571L89.2831 2.17119L89.6307 1.505ZM84.5817 -0.353413C82.36 -0.353413 80.5177 0.241758 79.2152 1.30842C77.9019 2.38406 77.1883 3.90101 77.1883 5.609H78.6911C78.6911 4.34699 79.2061 3.25844 80.1675 2.47108C81.1398 1.67474 82.6184 1.14941 84.5817 1.14941V-0.353413ZM77.1883 5.609V5.933H78.6911V5.609H77.1883ZM77.1883 5.933C77.1883 7.78173 77.7535 9.16 78.9969 10.1629C80.1776 11.1152 81.8941 11.6616 84.0267 12.0963L84.3268 10.6237C82.2203 10.1944 80.8184 9.70132 79.9403 8.99312C79.125 8.3355 78.6911 7.43227 78.6911 5.933H77.1883ZM84.0213 12.0952C85.6803 12.4458 86.6272 12.7858 87.1616 13.182C87.4099 13.3661 87.5567 13.5542 87.6485 13.7593C87.7436 13.9714 87.7993 14.2457 87.7993 14.627H89.3021C89.3021 14.1038 89.2263 13.6052 89.0201 13.1449C88.8107 12.6775 88.4867 12.2936 88.0566 11.9747C87.2343 11.3652 85.9942 10.9762 84.3321 10.6248L84.0213 12.0952ZM87.7993 14.627V14.924H89.3021V14.627H87.7993ZM87.7993 14.924C87.7993 15.493 87.5636 15.9785 87.0681 16.3447C86.5517 16.7262 85.7068 17.0076 84.4737 17.0076V18.5104C85.9137 18.5104 87.1072 18.1843 87.9612 17.5533C88.8359 16.907 89.3021 15.975 89.3021 14.924H87.7993ZM84.4737 17.0076C82.7836 17.0076 81.2976 16.5368 80.031 15.7669L79.2504 17.0511C80.7379 17.9552 82.4919 18.5104 84.4737 18.5104V17.0076ZM80.0314 15.7671C79.5859 15.496 79.0753 15.3778 78.5633 15.509C78.0588 15.6382 77.6676 15.98 77.3913 16.4035L78.6501 17.2245C78.7789 17.027 78.8872 16.9773 78.9361 16.9648C78.9776 16.9542 79.0746 16.944 79.25 17.0509L80.0314 15.7671ZM77.3913 16.4035C77.1048 16.8429 76.9586 17.3706 77.0509 17.9012C77.1456 18.4458 77.4776 18.9088 77.9851 19.2133L78.7583 17.9247C78.5909 17.8242 78.5448 17.7202 78.5315 17.6438C78.5158 17.5534 78.5317 17.406 78.6501 17.2245L77.3913 16.4035ZM77.9549 19.1942C79.5568 20.2621 81.949 20.9404 84.3387 20.9404V19.4376C82.1925 19.4376 80.1027 18.8199 78.7885 17.9438L77.9549 19.1942ZM84.3387 20.9404C86.6572 20.9404 88.5722 20.4044 89.9232 19.329C91.2972 18.2354 92.0021 16.651 92.0021 14.762H90.4993C90.4993 16.248 89.9623 17.3771 88.9873 18.1532C87.9893 18.9476 86.4483 19.4376 84.3387 19.4376V20.9404ZM92.0021 14.762V14.384H90.4993V14.762H92.0021ZM92.0021 14.384C92.0021 12.7657 91.5418 11.4175 90.3437 10.361C89.195 9.34814 87.4439 8.67442 85.0333 8.16766L84.7241 9.63834C87.0656 10.1306 88.5005 10.7394 89.3498 11.4882C90.1496 12.1935 90.4993 13.0863 90.4993 14.384H92.0021ZM85.0386 8.16879C83.3658 7.80454 82.4408 7.4647 81.9329 7.09435C81.6983 6.92328 81.5698 6.75696 81.4923 6.58674C81.4117 6.40976 81.3641 6.17996 81.3641 5.852H79.8613C79.8613 6.32054 79.9286 6.77923 80.1247 7.20976C80.3239 7.64704 80.6341 8.00722 81.0475 8.30865C81.8356 8.8833 83.0437 9.27246 84.7189 9.63721L85.0386 8.16879ZM81.3641 5.852V5.582H79.8613V5.852H81.3641ZM81.3641 5.582C81.3641 4.7187 82.3242 3.57941 84.6357 3.57941V2.07659C81.9793 2.07659 79.8613 3.4753 79.8613 5.582H81.3641ZM84.6357 3.57941C86.1058 3.57941 87.2021 3.83077 88.2147 4.33708L88.8868 2.99292C87.6314 2.36523 86.2977 2.07659 84.6357 2.07659V3.57941ZM88.2398 4.34906C88.6635 4.54163 89.1507 4.61726 89.6298 4.47172C90.1173 4.32361 90.4978 3.97628 90.7504 3.50989L89.429 2.79411C89.3307 2.97572 89.2387 3.01989 89.1929 3.03378C89.1388 3.05024 89.032 3.05837 88.8617 2.98094L88.2398 4.34906ZM90.7439 3.52174C91.2907 2.55435 90.9995 1.37161 89.9783 0.838808L89.2831 2.17119C89.504 2.28639 89.5908 2.50765 89.4356 2.78226L90.7439 3.52174ZM89.9991 0.850085C88.5569 0.0388603 86.6906 -0.353413 84.5817 -0.353413V1.14941C86.5228 1.14941 88.1125 1.51314 89.2623 2.15991L89.9991 0.850085Z" fill="#5087FF"/>
</svg>
