<svg width="174" height="140" viewBox="0 0 174 140" fill="none" xmlns="http://www.w3.org/2000/svg">
<path d="M6.70163 98.5429L74.9636 139.017L27.0942 72.1465L23.5482 73.9062C19.7057 75.9593 10.2477 81.2972 3.15556 86.2246C-3.93659 91.1519 2.56455 96.4899 6.70163 98.5429Z" fill="#DADADA"/>
<path fill-rule="evenodd" clip-rule="evenodd" d="M27.0898 111.217L75.6474 139.021L172.763 83.4127V27.8042L75.6474 83.4127L27.0898 55.6085V111.217Z" fill="#F4B844"/>
<path d="M75.6474 83.4127L172.763 27.8042L124.205 0L27.0898 55.6085L75.6474 83.4127Z" fill="#F4B844"/>
<path d="M75.6474 83.4127L172.763 27.8042L124.205 0L27.0898 55.6085L75.6474 83.4127Z" fill="#FCD33A"/>
<path d="M124.608 8.67525L157.061 27.4275L75.2316 73.8299L42.8128 55.5045L124.608 8.67525Z" stroke="white" stroke-opacity="0.6" stroke-width="5.39315"/>
<path d="M75.6523 83.4141V139.023" stroke="#FCD33A" stroke-width="1.79772"/>
<path d="M27.0898 63.4859L75.6474 91.7535L172.763 35.6816" stroke="#FCD33A" stroke-width="1.79772"/>
<path d="M27.0898 86.1929L75.6474 114.461L172.763 58.3887" stroke="#FCD33A" stroke-width="1.79772"/>
<path d="M27.0898 71.3628L75.6474 99.6305L172.763 43.5586" stroke="#FCD33A" stroke-width="1.79772"/>
<path d="M27.0898 94.0699L75.6474 122.338L172.763 66.2656" stroke="#FCD33A" stroke-width="1.79772"/>
<path d="M27.0898 78.7788L75.6474 107.046L172.763 50.9746" stroke="#FCD33A" stroke-width="1.79772"/>
<path d="M27.0898 101.484L75.6474 129.752L172.763 73.6797" stroke="#FCD33A" stroke-width="1.79772"/>
<ellipse cx="102.271" cy="39.854" rx="16.3415" ry="9.26808" fill="white" fill-opacity="0.6"/>
<ellipse cx="75.1951" cy="54.6818" rx="7.93729" ry="3.70723" fill="white" fill-opacity="0.2"/>
<ellipse cx="127.465" cy="25.9514" rx="7.93729" ry="3.70723" fill="white" fill-opacity="0.2"/>
<ellipse rx="3.29867" ry="1.99434" transform="matrix(0.903994 -0.427545 0.424264 0.905539 87.8984 45.5987)" fill="#806C23"/>
<ellipse rx="3.29866" ry="1.9943" transform="matrix(0.903995 -0.427542 0.424267 0.905537 111.437 32.4796)" fill="#806C23"/>
<ellipse rx="2.60834" ry="3.63748" transform="matrix(-0.123672 -0.992323 0.992263 -0.124156 107.599 45.3058)" fill="#806C23"/>
</svg>
