<svg width="275" height="355" viewBox="0 0 275 355" fill="none" xmlns="http://www.w3.org/2000/svg">
<ellipse cx="47" cy="46.5" rx="47" ry="46.5" fill="#5087FF"/>
<circle cx="240" cy="335" r="20" fill="#BDC5D8"/>
<g filter="url(#filter0_d_3475_5251)">
<rect x="33" y="16" width="207" height="326" rx="8.19802" fill="white"/>
</g>
<path d="M103.529 68.708V69.956C103.529 71.84 102.629 73.892 100.769 74.72L101.669 75.98C103.757 75.032 104.801 72.524 104.801 69.956V68.708H103.529ZM103.889 68.708V69.956C103.889 72.428 104.921 74.792 107.033 75.704L107.897 74.444C106.037 73.676 105.149 71.756 105.149 69.956V68.708H103.889ZM101.213 68.024V69.332H107.441V68.024H101.213ZM108.473 66.956V78.068H110.081V66.956H108.473ZM113.128 67.448V68.72H120.172V67.448H113.128ZM111.904 71.444V72.716H121.96V71.444H111.904ZM119.212 67.448V68.336C119.212 69.284 119.212 70.304 118.864 71.744L120.448 71.768C120.784 70.328 120.784 69.296 120.784 68.336V67.448H119.212ZM113.08 73.88V77.948H120.736V73.88H113.08ZM119.164 75.116V76.688H114.64V75.116H119.164ZM128.35 67.916V68.6C128.35 69.908 127.546 71.252 125.686 71.792L126.49 73.04C128.626 72.392 129.658 70.592 129.658 68.6V67.916H128.35ZM128.674 67.916V68.6C128.674 70.52 129.706 72.236 131.806 72.848L132.586 71.612C130.786 71.096 129.982 69.836 129.982 68.6V67.916H128.674ZM126.118 67.556V68.816H132.166V67.556H126.118ZM133.282 66.956V72.98H134.89V66.956H133.282ZM127.498 73.46V77.948H134.89V73.46H133.306V74.468H129.07V73.46H127.498ZM129.07 75.704H133.306V76.676H129.07V75.704ZM143.524 68.192V68.516C143.524 69.656 142.348 70.904 139.9 71.204L140.488 72.452C143.308 72.068 144.904 70.472 144.904 68.516V68.192H143.524ZM143.98 68.192V68.516C143.98 70.472 145.576 72.068 148.408 72.452L148.984 71.204C146.536 70.904 145.36 69.656 145.36 68.516V68.192H143.98ZM143.608 74V78.08H145.192V74H143.608ZM139.42 73.088V74.36H149.464V73.088H139.42ZM140.308 67.52V68.78H148.552V67.52H140.308ZM158.079 66.968V74.948H159.687V66.968H158.079ZM152.283 76.604V77.876H159.963V76.604H152.283ZM152.283 74.144V77.12H153.879V74.144H152.283ZM153.639 67.664C151.935 67.664 150.615 68.84 150.615 70.484C150.615 72.116 151.935 73.304 153.639 73.304C155.343 73.304 156.651 72.116 156.651 70.484C156.651 68.84 155.343 67.664 153.639 67.664ZM153.639 69.044C154.455 69.044 155.091 69.572 155.091 70.484C155.091 71.384 154.455 71.912 153.639 71.912C152.811 71.912 152.175 71.384 152.175 70.484C152.175 69.572 152.811 69.044 153.639 69.044ZM162.002 79.568C163.466 79.088 164.27 78.02 164.27 76.604C164.27 75.524 163.814 74.876 163.01 74.876C162.374 74.876 161.858 75.284 161.858 75.92C161.858 76.58 162.386 76.964 162.962 76.964C163.226 76.964 163.466 76.88 163.646 76.7L163.022 75.668L163.082 76.916C163.094 77.624 162.578 78.26 161.642 78.608L162.002 79.568ZM59.7381 93.488V94.784H69.7941V93.488H59.7381ZM63.9501 91.112V93.8H65.5461V91.112H63.9501ZM60.7941 85.664V91.448H68.7021V85.664H67.1181V87.368H62.3781V85.664H60.7941ZM62.3781 88.616H67.1181V90.176H62.3781V88.616ZM70.7652 90.08V91.34H80.8092V90.08H70.7652ZM75.7692 91.952C73.3692 91.952 71.9052 92.708 71.9052 94.016C71.9052 95.324 73.3692 96.068 75.7692 96.068C78.1692 96.068 79.6212 95.324 79.6212 94.016C79.6212 92.708 78.1692 91.952 75.7692 91.952ZM75.7692 93.188C77.2572 93.188 78.0132 93.44 78.0132 94.016C78.0132 94.58 77.2572 94.844 75.7692 94.844C74.2812 94.844 73.5252 94.58 73.5252 94.016C73.5252 93.44 74.2812 93.188 75.7692 93.188ZM74.6892 86.096V86.372C74.6892 87.236 73.6212 88.208 71.1852 88.424L71.7372 89.66C74.6052 89.408 76.1052 88.028 76.1052 86.372V86.096H74.6892ZM75.4692 86.096V86.372C75.4692 88.04 76.9812 89.408 79.8372 89.66L80.3892 88.424C77.9412 88.208 76.8852 87.236 76.8852 86.372V86.096H75.4692ZM71.6772 85.472V86.732H79.9092V85.472H71.6772ZM83.0402 85.448V86.72H90.0842V85.448H83.0402ZM81.8162 89.444V90.716H91.8722V89.444H81.8162ZM89.1242 85.448V86.336C89.1242 87.284 89.1242 88.304 88.7762 89.744L90.3602 89.768C90.6962 88.328 90.6962 87.296 90.6962 86.336V85.448H89.1242ZM82.9922 91.88V95.948H90.6482V91.88H82.9922ZM89.0762 93.116V94.688H84.5522V93.116H89.0762ZM97.8713 85.112C95.3273 85.112 93.8513 85.784 93.8513 87.008C93.8513 88.232 95.3273 88.904 97.8713 88.904C100.403 88.904 101.891 88.232 101.891 87.008C101.891 85.784 100.403 85.112 97.8713 85.112ZM97.8713 86.276C99.4793 86.276 100.235 86.516 100.235 87.008C100.235 87.524 99.4793 87.74 97.8713 87.74C96.2633 87.74 95.5073 87.524 95.5073 87.008C95.5073 86.516 96.2633 86.276 97.8713 86.276ZM92.8433 89.42V90.68H102.887V89.42H92.8433ZM93.9953 91.304V92.492H100.103V93.056H94.0073V95.144H95.5793V94.16H101.675V91.304H93.9953ZM94.0073 94.796V95.996H101.963V94.796H94.0073ZM113.753 84.956V93.032H115.349V84.956H113.753ZM114.893 88.136V89.444H116.825V88.136H114.893ZM108.185 94.604V95.876H115.745V94.604H108.185ZM108.185 92.192V95.168H109.781V92.192H108.185ZM109.697 85.664C107.993 85.664 106.673 86.852 106.673 88.496C106.673 90.128 107.993 91.316 109.697 91.316C111.401 91.316 112.721 90.128 112.721 88.496C112.721 86.852 111.401 85.664 109.697 85.664ZM109.697 87.056C110.525 87.056 111.161 87.584 111.161 88.496C111.161 89.396 110.525 89.924 109.697 89.924C108.881 89.924 108.233 89.396 108.233 88.496C108.233 87.584 108.881 87.056 109.697 87.056ZM123.155 85.88V86.312C123.155 87.008 122.363 87.632 120.563 87.8L121.103 88.94C123.275 88.664 124.391 87.68 124.391 86.312V85.88H123.155ZM123.551 85.88V86.312C123.551 87.596 124.655 88.508 126.767 88.748L127.283 87.608C125.579 87.5 124.775 86.936 124.775 86.312V85.88H123.551ZM121.007 85.376V86.588H126.935V85.376H121.007ZM123.047 89.588V91.904H124.643V89.588H123.047ZM128.123 84.944V91.964H129.719V84.944H128.123ZM120.479 90.452C122.543 90.452 125.075 90.416 127.451 90.068L127.355 88.988C125.051 89.24 122.411 89.252 120.299 89.252L120.479 90.452ZM126.107 90.608V91.652H128.567V90.608H126.107ZM122.891 92.312V92.468C122.891 93.428 122.243 94.376 120.803 94.76L121.535 95.924C123.287 95.408 124.079 94.04 124.079 92.468V92.312H122.891ZM123.299 92.312V92.468C123.299 93.944 123.959 95.468 125.675 96.032L126.299 94.868C124.991 94.412 124.427 93.404 124.427 92.468V92.312H123.299ZM126.935 92.312V92.468C126.935 93.368 126.371 94.364 125.075 94.868L125.675 96.032C127.403 95.456 128.063 93.908 128.063 92.468V92.312H126.935ZM127.319 92.312V92.468C127.319 94.088 128.087 95.42 129.863 95.924L130.595 94.76C129.131 94.4 128.507 93.476 128.507 92.468V92.312H127.319ZM132.058 90.308V91.58H132.946C134.974 91.58 136.282 91.52 137.722 91.256L137.59 89.984C136.174 90.248 134.926 90.308 132.946 90.308H132.058ZM132.058 85.712V90.632H133.642V86.984H137.098V85.712H132.058ZM139.102 84.956V93.044H140.698V84.956H139.102ZM136.462 87.848V89.108H139.402V87.848H136.462ZM133.354 94.628V95.9H140.95V94.628H133.354ZM133.354 92.384V95.456H134.962V92.384H133.354ZM147.724 86.06V86.768C147.724 88.16 146.932 89.624 145.096 90.224L145.9 91.484C148.036 90.788 149.02 88.856 149.02 86.768V86.06H147.724ZM148.06 86.06V86.768C148.06 88.736 149.008 90.584 151.072 91.268L151.852 90.02C150.1 89.432 149.344 88.064 149.344 86.768V86.06H148.06ZM151.204 87.608V88.904H153.316V87.608H151.204ZM145.528 85.568V86.828H151.504V85.568H145.528ZM146.884 92.072V93.344H152.86V96.068H154.456V92.072H146.884ZM152.86 84.956V91.568H154.456V84.956H152.86ZM156.195 90.62V91.892H166.239V90.62H156.195ZM157.407 94.604V95.876H165.111V94.604H157.407ZM157.407 92.636V95.012H159.003V92.636H157.407ZM161.223 85.28C158.799 85.28 157.203 86.156 157.203 87.572C157.203 88.988 158.799 89.864 161.223 89.864C163.635 89.864 165.243 88.988 165.243 87.572C165.243 86.156 163.635 85.28 161.223 85.28ZM161.223 86.552C162.723 86.552 163.599 86.9 163.599 87.572C163.599 88.256 162.723 88.592 161.223 88.592C159.723 88.592 158.847 88.256 158.847 87.572C158.847 86.9 159.723 86.552 161.223 86.552ZM171.177 91.46V95.948H175.233V91.46H173.757V92.552H172.653V91.46H171.177ZM172.653 93.704H173.757V94.748H172.653V93.704ZM176.949 91.376V92.204C176.949 93.248 176.409 94.316 175.077 94.868L175.857 96.056C177.501 95.42 178.161 93.836 178.161 92.204V91.376H176.949ZM177.321 91.376V92.204C177.321 93.956 177.945 95.456 179.625 96.056L180.417 94.868C179.061 94.412 178.533 93.356 178.533 92.204V91.376H177.321ZM175.569 87.332V88.628H178.353V87.332H175.569ZM173.025 85.376C171.345 85.376 170.085 86.456 170.085 87.992C170.085 89.528 171.345 90.62 173.025 90.62C174.693 90.62 175.953 89.528 175.953 87.992C175.953 86.456 174.693 85.376 173.025 85.376ZM173.025 86.684C173.841 86.684 174.429 87.176 174.429 87.992C174.429 88.808 173.841 89.312 173.025 89.312C172.209 89.312 171.609 88.808 171.609 87.992C171.609 87.176 172.209 86.684 173.025 86.684ZM177.657 84.956V90.836H179.253V84.956H177.657ZM186.02 85.112C183.476 85.112 182 85.784 182 87.008C182 88.232 183.476 88.904 186.02 88.904C188.552 88.904 190.04 88.232 190.04 87.008C190.04 85.784 188.552 85.112 186.02 85.112ZM186.02 86.276C187.628 86.276 188.384 86.516 188.384 87.008C188.384 87.524 187.628 87.74 186.02 87.74C184.412 87.74 183.656 87.524 183.656 87.008C183.656 86.516 184.412 86.276 186.02 86.276ZM180.992 89.42V90.68H191.036V89.42H180.992ZM182.144 91.304V92.492H188.252V93.056H182.156V95.144H183.728V94.16H189.824V91.304H182.144ZM182.156 94.796V95.996H190.112V94.796H182.156ZM199.267 84.956V96.068H200.863V84.956H199.267ZM200.371 89.3V90.62H202.303V89.3H200.371ZM193.819 86.084V86.276C193.819 89.096 193.519 90.944 191.803 92.84L193.051 93.74C195.019 91.532 195.307 89.168 195.307 86.084H193.819ZM192.295 86.084V87.38H194.443V86.084H192.295ZM196.879 86.084V86.264C196.879 89.3 196.603 91.436 194.923 93.56L196.171 94.448C198.103 92.036 198.367 89.312 198.367 86.084H196.879ZM195.679 86.084V87.38H197.539V86.084H195.679ZM204.702 91.976H206.25C206.07 90.284 208.158 89.72 208.158 88.016C208.158 86.468 207.102 85.724 205.65 85.724C204.606 85.724 203.754 86.216 203.13 86.924L204.102 87.824C204.498 87.416 204.918 87.152 205.446 87.152C206.07 87.152 206.466 87.524 206.466 88.136C206.466 89.276 204.414 90.044 204.702 91.976ZM205.482 95.168C206.106 95.168 206.586 94.676 206.586 94.016C206.586 93.356 206.106 92.876 205.482 92.876C204.846 92.876 204.39 93.356 204.39 94.016C204.39 94.676 204.846 95.168 205.482 95.168Z" fill="#5087FF"/>
<path d="M83.48 152.172V153.456H93.548V152.172H83.48ZM87.68 153V157.08H89.264V153H87.68ZM88.484 146.328C86.12 146.328 84.476 147.312 84.476 148.836C84.476 150.348 86.12 151.32 88.484 151.32C90.86 151.32 92.504 150.348 92.504 148.836C92.504 147.312 90.86 146.328 88.484 146.328ZM88.484 147.6C89.948 147.6 90.86 148.032 90.86 148.836C90.86 149.628 89.948 150.06 88.484 150.06C87.032 150.06 86.108 149.628 86.108 148.836C86.108 148.032 87.032 147.6 88.484 147.6ZM102.175 145.944V157.092H103.771V145.944H102.175ZM95.1191 153.204V154.5H96.1031C98.1311 154.5 99.7631 154.44 101.563 154.116L101.407 152.832C99.6431 153.132 98.0711 153.204 96.1031 153.204H95.1191ZM95.1071 146.892V148.164H98.7191V149.928H95.1191V153.684H96.7391V151.188H100.351V146.892H95.1071ZM110.977 146.916V147.6C110.977 148.908 110.173 150.252 108.313 150.792L109.117 152.04C111.253 151.392 112.285 149.592 112.285 147.6V146.916H110.977ZM111.301 146.916V147.6C111.301 149.52 112.333 151.236 114.433 151.848L115.213 150.612C113.413 150.096 112.609 148.836 112.609 147.6V146.916H111.301ZM108.745 146.556V147.816H114.793V146.556H108.745ZM115.909 145.956V151.98H117.517V145.956H115.909ZM110.125 152.46V156.948H117.517V152.46H115.933V153.468H111.697V152.46H110.125ZM111.697 154.704H115.933V155.676H111.697V154.704ZM126.247 149.94V151.932H127.831V149.94H126.247ZM122.035 151.272V152.532H132.079V151.272H122.035ZM127.039 153.144C124.627 153.144 123.175 153.852 123.175 155.112C123.175 156.372 124.627 157.068 127.039 157.068C129.451 157.068 130.891 156.372 130.891 155.112C130.891 153.852 129.451 153.144 127.039 153.144ZM127.039 154.344C128.539 154.344 129.283 154.584 129.283 155.112C129.283 155.652 128.539 155.88 127.039 155.88C125.539 155.88 124.795 155.652 124.795 155.112C124.795 154.584 125.539 154.344 127.039 154.344ZM125.959 147V147.276C125.959 148.14 124.891 149.112 122.455 149.316L123.007 150.576C125.875 150.3 127.375 148.944 127.375 147.276V147H125.959ZM126.739 147V147.276C126.739 148.956 128.251 150.3 131.107 150.576L131.659 149.316C129.211 149.112 128.155 148.14 128.155 147.276V147H126.739ZM122.947 146.412V147.672H131.179V146.412H122.947ZM140.226 145.956V152.46H141.822V145.956H140.226ZM141.186 148.62V149.94H143.298V148.62H141.186ZM134.598 152.892V156.948H141.822V152.892H140.238V153.732H136.17V152.892H134.598ZM136.17 154.932H140.238V155.7H136.17V154.932ZM133.074 146.916V148.176H139.614V146.916H133.074ZM136.35 148.476C134.73 148.476 133.614 149.268 133.614 150.444C133.614 151.62 134.73 152.412 136.35 152.412C137.958 152.412 139.074 151.62 139.074 150.444C139.074 149.268 137.958 148.476 136.35 148.476ZM136.35 149.64C137.058 149.64 137.55 149.928 137.55 150.444C137.55 150.972 137.058 151.248 136.35 151.248C135.63 151.248 135.15 150.972 135.15 150.444C135.15 149.928 135.63 149.64 136.35 149.64ZM135.546 145.872V147.624H137.142V145.872H135.546ZM150.432 146.4C148.752 146.4 147.528 147.372 147.528 148.776C147.528 150.156 148.752 151.152 150.432 151.152C152.124 151.152 153.348 150.156 153.348 148.776C153.348 147.372 152.124 146.4 150.432 146.4ZM150.432 147.696C151.248 147.696 151.824 148.08 151.824 148.776C151.824 149.46 151.248 149.844 150.432 149.844C149.628 149.844 149.052 149.46 149.052 148.776C149.052 148.08 149.628 147.696 150.432 147.696ZM149.688 152.256V156.732H151.284V152.256H149.688ZM154.548 145.956V157.068H156.132V145.956H154.548ZM147.06 153.096C148.98 153.084 151.608 153.06 154.02 152.58L153.912 151.416C151.56 151.776 148.812 151.8 146.868 151.8L147.06 153.096ZM165.575 145.956V152.664H167.171V145.956H165.575ZM164.183 149.208V150.504H166.223V149.208H164.183ZM159.767 153.132V156.948H167.171V153.132H159.767ZM165.611 154.392V155.688H161.339V154.392H165.611ZM157.907 146.916V148.176H164.399V146.916H157.907ZM161.159 148.536C159.611 148.536 158.495 149.364 158.495 150.54C158.495 151.728 159.611 152.532 161.159 152.532C162.707 152.532 163.811 151.728 163.811 150.54C163.811 149.364 162.707 148.536 161.159 148.536ZM161.159 149.724C161.831 149.724 162.287 150 162.287 150.54C162.287 151.08 161.831 151.368 161.159 151.368C160.475 151.368 160.019 151.08 160.019 150.54C160.019 150 160.475 149.724 161.159 149.724ZM160.355 145.86V147.816H161.951V145.86H160.355ZM170.086 150.912V152.184H177.898V150.912H170.086ZM168.922 154.512V155.82H178.978V154.512H168.922ZM173.134 151.488V154.932H174.73V151.488H173.134ZM170.086 146.712V151.464H171.682V147.996H177.814V146.712H170.086ZM181.197 148.956V150.216H188.901V148.956H181.197ZM179.949 151.368V152.64H190.017V151.368H179.949ZM181.197 146.352V149.58H182.781V146.352H181.197ZM181.089 155.556V156.828H188.961V155.556H181.089ZM181.089 153.528V155.892H182.685V153.528H181.089ZM192.62 152.976H194.168C193.988 151.284 196.076 150.72 196.076 149.016C196.076 147.468 195.02 146.724 193.568 146.724C192.524 146.724 191.672 147.216 191.048 147.924L192.02 148.824C192.416 148.416 192.836 148.152 193.364 148.152C193.988 148.152 194.384 148.524 194.384 149.136C194.384 150.276 192.332 151.044 192.62 152.976ZM193.4 156.168C194.024 156.168 194.504 155.676 194.504 155.016C194.504 154.356 194.024 153.876 193.4 153.876C192.764 153.876 192.308 154.356 192.308 155.016C192.308 155.676 192.764 156.168 193.4 156.168Z" fill="#5087FF"/>
<path d="M86.1 249.944V261.092H87.708V249.944H86.1ZM81.72 250.724C80.04 250.724 78.804 252.26 78.804 254.684C78.804 257.132 80.04 258.668 81.72 258.668C83.4 258.668 84.636 257.132 84.636 254.684C84.636 252.26 83.4 250.724 81.72 250.724ZM81.72 252.176C82.548 252.176 83.1 253.052 83.1 254.684C83.1 256.34 82.548 257.228 81.72 257.228C80.892 257.228 80.328 256.34 80.328 254.684C80.328 253.052 80.892 252.176 81.72 252.176ZM94.9378 250.916V251.6C94.9378 252.908 94.1338 254.252 92.2738 254.792L93.0778 256.04C95.2138 255.392 96.2458 253.592 96.2458 251.6V250.916H94.9378ZM95.2618 250.916V251.6C95.2618 253.52 96.2938 255.236 98.3938 255.848L99.1738 254.612C97.3738 254.096 96.5698 252.836 96.5698 251.6V250.916H95.2618ZM92.7058 250.556V251.816H98.7538V250.556H92.7058ZM99.8698 249.956V255.98H101.478V249.956H99.8698ZM94.0858 256.46V260.948H101.478V256.46H99.8938V257.468H95.6578V256.46H94.0858ZM95.6578 258.704H99.8938V259.676H95.6578V258.704ZM110.76 257.36V257.612C110.76 258.56 109.728 259.58 107.388 259.844L107.928 261.032C110.652 260.708 112.104 259.34 112.104 257.612V257.36H110.76ZM111.072 257.36V257.612C111.072 259.352 112.548 260.708 115.26 261.032L115.812 259.844C113.46 259.58 112.416 258.572 112.416 257.612V257.36H111.072ZM107.904 256.736V257.984H115.344V256.736H107.904ZM113.628 249.956V256.28H115.236V249.956H113.628ZM106.56 250.544V255.776H111.96V250.544H110.376V251.948H108.132V250.544H106.56ZM108.132 253.172H110.376V254.516H108.132V253.172ZM124.655 249.944V261.092H126.263V249.944H124.655ZM120.275 250.724C118.595 250.724 117.359 252.26 117.359 254.684C117.359 257.132 118.595 258.668 120.275 258.668C121.955 258.668 123.191 257.132 123.191 254.684C123.191 252.26 121.955 250.724 120.275 250.724ZM120.275 252.176C121.103 252.176 121.655 253.052 121.655 254.684C121.655 256.34 121.103 257.228 120.275 257.228C119.447 257.228 118.883 256.34 118.883 254.684C118.883 253.052 119.447 252.176 120.275 252.176ZM137.945 249.956V255.476H139.541V249.956H137.945ZM138.905 252.272V253.58H141.017V252.272H138.905ZM131.117 250.64V255.284H136.409V250.64H131.117ZM134.837 251.888V254.036H132.689V251.888H134.837ZM131.777 259.508V260.78H132.389C133.48 260.78 134.345 260.732 135.269 260.408L135.029 259.16C134.213 259.436 133.361 259.508 132.389 259.508H131.777ZM131.777 256.424V259.82H133.325V256.424H131.777ZM134.873 256.532V257.66H140.429V256.532H134.873ZM137.657 257.948C136.385 257.948 135.509 258.56 135.509 259.508C135.509 260.468 136.385 261.068 137.657 261.068C138.917 261.068 139.793 260.468 139.793 259.508C139.793 258.56 138.917 257.948 137.657 257.948ZM137.657 259.028C138.065 259.028 138.377 259.184 138.377 259.508C138.377 259.844 138.065 260 137.657 260C137.225 260 136.924 259.844 136.924 259.508C136.924 259.184 137.225 259.028 137.657 259.028ZM136.889 255.74V257.36H138.437V255.74H136.889ZM141.832 255.62V256.892H151.876V255.62H141.832ZM143.044 259.604V260.876H150.748V259.604H143.044ZM143.044 257.636V260.012H144.64V257.636H143.044ZM146.86 250.28C144.436 250.28 142.84 251.156 142.84 252.572C142.84 253.988 144.436 254.864 146.86 254.864C149.272 254.864 150.88 253.988 150.88 252.572C150.88 251.156 149.272 250.28 146.86 250.28ZM146.86 251.552C148.36 251.552 149.236 251.9 149.236 252.572C149.236 253.256 148.36 253.592 146.86 253.592C145.36 253.592 144.484 253.256 144.484 252.572C144.484 251.9 145.36 251.552 146.86 251.552ZM163.293 249.956V258.14H164.889V249.956H163.293ZM155.865 250.748V252.02H161.733V250.748H155.865ZM155.745 256.82C157.509 256.82 159.897 256.772 161.961 256.424L161.877 255.26C159.873 255.488 157.377 255.512 155.589 255.512L155.745 256.82ZM156.741 251.864V255.668H158.277V251.864H156.741ZM159.321 251.864V255.668H160.845V251.864H159.321ZM161.949 251.9V253.172H164.157V251.9H161.949ZM161.949 254.132V255.416H164.157V254.132H161.949ZM157.545 259.604V260.876H165.141V259.604H157.545ZM157.545 257.54V260.564H159.153V257.54H157.545ZM169.76 250.28C168.068 250.28 166.796 251.336 166.796 252.824C166.796 254.3 168.068 255.356 169.76 255.356C171.452 255.356 172.724 254.3 172.724 252.824C172.724 251.336 171.452 250.28 169.76 250.28ZM169.76 251.576C170.576 251.576 171.176 252.032 171.176 252.824C171.176 253.616 170.576 254.072 169.76 254.072C168.944 254.072 168.332 253.616 168.332 252.824C168.332 252.032 168.944 251.576 169.76 251.576ZM174.26 249.956V255.512H175.868V249.956H174.26ZM168.452 255.968V257.204H174.284V257.864H168.476V260.36H170.036V259.016H175.868V255.968H168.452ZM168.476 259.712V260.948H176.144V259.712H168.476ZM184.904 249.956V261.068H186.5V249.956H184.904ZM186.008 254.3V255.62H187.94V254.3H186.008ZM179.456 251.084V251.276C179.456 254.096 179.156 255.944 177.44 257.84L178.688 258.74C180.656 256.532 180.944 254.168 180.944 251.084H179.456ZM177.932 251.084V252.38H180.08V251.084H177.932ZM182.516 251.084V251.264C182.516 254.3 182.24 256.436 180.56 258.56L181.808 259.448C183.74 257.036 184.004 254.312 184.004 251.084H182.516ZM181.316 251.084V252.38H183.176V251.084H181.316ZM190.339 256.976H191.887C191.707 255.284 193.795 254.72 193.795 253.016C193.795 251.468 192.739 250.724 191.287 250.724C190.243 250.724 189.391 251.216 188.767 251.924L189.739 252.824C190.135 252.416 190.555 252.152 191.083 252.152C191.707 252.152 192.103 252.524 192.103 253.136C192.103 254.276 190.051 255.044 190.339 256.976ZM191.119 260.168C191.743 260.168 192.223 259.676 192.223 259.016C192.223 258.356 191.743 257.876 191.119 257.876C190.483 257.876 190.027 258.356 190.027 259.016C190.027 259.676 190.483 260.168 191.119 260.168Z" fill="#5087FF"/>
<circle r="2.5" transform="matrix(1 0 0 -1 134.5 285.5)" fill="#5087FF"/>
<circle r="2.5" transform="matrix(1 0 0 -1 134.5 302.5)" fill="#5087FF"/>
<circle r="2.5" transform="matrix(1 0 0 -1 134.5 319.5)" fill="#5087FF"/>
<g filter="url(#filter1_i_3475_5251)">
<rect x="128" y="42" width="12" height="12" rx="1" fill="white"/>
</g>
<path d="M128.895 45.1279C128.414 44.6333 127.622 44.6229 127.128 45.1045C126.633 45.5862 126.623 46.3776 127.105 46.8721L128.895 45.1279ZM132.87 51L131.974 51.8721C132.214 52.1187 132.545 52.2554 132.89 52.2498C133.234 52.2443 133.561 52.0971 133.793 51.8428L132.87 51ZM142.923 41.8428C143.389 41.333 143.353 40.5424 142.843 40.0769C142.333 39.6114 141.542 39.6473 141.077 40.1572L142.923 41.8428ZM127.105 46.8721L131.974 51.8721L133.765 50.1279L128.895 45.1279L127.105 46.8721ZM133.793 51.8428L142.923 41.8428L141.077 40.1572L131.946 50.1572L133.793 51.8428Z" fill="#5087FF"/>
<g filter="url(#filter2_i_3475_5251)">
<rect x="128" y="126" width="12" height="12" rx="1" fill="white"/>
</g>
<path d="M128.895 129.128C128.414 128.633 127.622 128.623 127.128 129.105C126.633 129.586 126.623 130.378 127.105 130.872L128.895 129.128ZM132.87 135L131.974 135.872C132.214 136.119 132.545 136.255 132.89 136.25C133.234 136.244 133.561 136.097 133.793 135.843L132.87 135ZM142.923 125.843C143.389 125.333 143.353 124.542 142.843 124.077C142.333 123.611 141.542 123.647 141.077 124.157L142.923 125.843ZM127.105 130.872L131.974 135.872L133.765 134.128L128.895 129.128L127.105 130.872ZM133.793 135.843L142.923 125.843L141.077 124.157L131.946 134.157L133.793 135.843Z" fill="#5087FF"/>
<g filter="url(#filter3_i_3475_5251)">
<rect x="128" y="227" width="12" height="12" rx="1" fill="white"/>
</g>
<path d="M128.895 230.128C128.414 229.633 127.622 229.623 127.128 230.105C126.633 230.586 126.623 231.378 127.105 231.872L128.895 230.128ZM132.87 236L131.974 236.872C132.214 237.119 132.545 237.255 132.89 237.25C133.234 237.244 133.561 237.097 133.793 236.843L132.87 236ZM142.923 226.843C143.389 226.333 143.353 225.542 142.843 225.077C142.333 224.611 141.542 224.647 141.077 225.157L142.923 226.843ZM127.105 231.872L131.974 236.872L133.765 235.128L128.895 230.128L127.105 231.872ZM133.793 236.843L142.923 226.843L141.077 225.157L131.946 235.157L133.793 236.843Z" fill="#5087FF"/>
<path d="M50.5926 185C50.5926 177.595 56.5953 171.593 64 171.593H209C216.405 171.593 222.407 177.595 222.407 185C222.407 192.405 216.405 198.407 209 198.407H64C56.5953 198.407 50.5926 192.405 50.5926 185Z" fill="white" stroke="#DFDFDF" stroke-width="1.18528"/>
<path d="M198.069 185.72C197.134 185.72 196.453 186.261 196.453 187.042C196.453 187.81 197.134 188.365 198.069 188.365C199.01 188.365 199.692 187.81 199.692 187.042C199.692 186.261 199.01 185.72 198.069 185.72ZM198.069 186.441C198.523 186.441 198.843 186.655 198.843 187.042C198.843 187.423 198.523 187.637 198.069 187.637C197.621 187.637 197.301 187.423 197.301 187.042C197.301 186.655 197.621 186.441 198.069 186.441ZM197.655 188.979V191.47H198.543V188.979H197.655ZM200.359 185.473V191.657H201.241V185.473H200.359ZM196.192 189.446C197.261 189.44 198.723 189.426 200.066 189.159L200.005 188.511C198.697 188.712 197.167 188.725 196.085 188.725L196.192 189.446ZM206.496 185.473V189.206H207.384V185.473H206.496ZM205.721 187.283V188.004H206.857V187.283H205.721ZM203.264 189.466V191.59H207.384V189.466H203.264ZM206.516 190.168V190.889H204.139V190.168H206.516ZM202.229 186.007V186.708H205.842V186.007H202.229ZM204.038 186.909C203.177 186.909 202.556 187.37 202.556 188.024C202.556 188.685 203.177 189.133 204.038 189.133C204.9 189.133 205.514 188.685 205.514 188.024C205.514 187.37 204.9 186.909 204.038 186.909ZM204.038 187.57C204.412 187.57 204.666 187.723 204.666 188.024C204.666 188.324 204.412 188.485 204.038 188.485C203.658 188.485 203.404 188.324 203.404 188.024C203.404 187.723 203.658 187.57 204.038 187.57ZM203.591 185.42V186.508H204.479V185.42H203.591Z" fill="#FF5A56"/>
<path d="M69.4203 186.234V186.955H70.4887V186.234H69.4203ZM69.4203 187.577V188.298H70.4887V187.577H69.4203ZM66.5487 185.807C65.5937 185.807 64.8658 186.435 64.8658 187.309C64.8658 188.178 65.5937 188.805 66.5487 188.805C67.5036 188.805 68.2315 188.178 68.2315 187.309C68.2315 186.435 67.5036 185.807 66.5487 185.807ZM66.5487 186.548C67.0161 186.548 67.3634 186.835 67.3634 187.309C67.3634 187.79 67.0161 188.064 66.5487 188.064C66.0812 188.064 65.7339 187.79 65.7339 187.309C65.7339 186.835 66.0812 186.548 66.5487 186.548ZM68.8059 185.473V189.079H69.6941V185.473H68.8059ZM67.6773 189.213C66.3951 189.213 65.5803 189.673 65.5803 190.435C65.5803 191.203 66.3951 191.657 67.6773 191.657C68.9528 191.657 69.7675 191.203 69.7675 190.435C69.7675 189.673 68.9528 189.213 67.6773 189.213ZM67.6773 189.914C68.4653 189.914 68.886 190.081 68.886 190.435C68.886 190.795 68.4653 190.962 67.6773 190.962C66.8893 190.962 66.4619 190.795 66.4619 190.435C66.4619 190.081 66.8893 189.914 67.6773 189.914ZM71.2095 186.241V186.949H76.3115V186.241H71.2095ZM70.9757 190.321V191.036H76.572V190.321H70.9757ZM73.3197 189.507V190.602H74.2013V189.507H73.3197ZM73.7538 187.216C72.4649 187.216 71.6569 187.663 71.6569 188.425C71.6569 189.186 72.4649 189.633 73.7538 189.633C75.0427 189.633 75.8507 189.186 75.8507 188.425C75.8507 187.663 75.0427 187.216 73.7538 187.216ZM73.7538 187.904C74.5285 187.904 74.9425 188.071 74.9425 188.425C74.9425 188.779 74.5285 188.939 73.7538 188.939C72.9792 188.939 72.5651 188.779 72.5651 188.425C72.5651 188.071 72.9792 187.904 73.7538 187.904ZM73.3197 185.54V186.682H74.2013V185.54H73.3197Z" fill="#BDBDBD"/>
<path d="M132.672 186.161V186.341C132.672 186.976 132.018 187.67 130.656 187.837L130.983 188.531C132.552 188.318 133.44 187.43 133.44 186.341V186.161H132.672ZM132.926 186.161V186.341C132.926 187.43 133.814 188.318 135.39 188.531L135.711 187.837C134.349 187.67 133.694 186.976 133.694 186.341V186.161H132.926ZM132.719 189.393V191.664H133.601V189.393H132.719ZM130.388 188.885V189.593H135.978V188.885H130.388ZM130.883 185.787V186.488H135.47V185.787H130.883ZM138.515 185.88C137.547 185.88 136.806 186.515 136.806 187.403C136.806 188.298 137.547 188.932 138.515 188.932C139.49 188.932 140.218 188.298 140.218 187.403C140.218 186.515 139.49 185.88 138.515 185.88ZM138.515 186.642C138.989 186.642 139.35 186.922 139.35 187.403C139.35 187.89 138.989 188.171 138.515 188.171C138.041 188.171 137.68 187.89 137.68 187.403C137.68 186.922 138.041 186.642 138.515 186.642ZM140.799 185.466V191.67H141.687V185.466H140.799ZM136.659 190.415C137.727 190.415 139.183 190.401 140.525 190.134L140.458 189.493C139.156 189.687 137.64 189.7 136.552 189.7L136.659 190.415Z" fill="#BDBDBD"/>
<path d="M80.1987 204.752V205.495H80.6618V204.752H80.1987ZM78.596 205.29V205.664H82.2734V205.29H78.596ZM80.4302 205.949C79.5532 205.949 79.0278 206.203 79.0278 206.657C79.0278 207.111 79.5532 207.365 80.4302 207.365C81.3073 207.365 81.8326 207.111 81.8326 206.657C81.8326 206.203 81.3073 205.949 80.4302 205.949ZM80.4302 206.305C81.0313 206.305 81.3607 206.426 81.3607 206.657C81.3607 206.893 81.0313 207.013 80.4302 207.013C79.8292 207.013 79.4998 206.893 79.4998 206.657C79.4998 206.426 79.8292 206.305 80.4302 206.305ZM80.1231 203.656V203.768C80.1231 204.164 79.5799 204.525 78.7785 204.6L78.9433 204.97C79.8782 204.867 80.5371 204.404 80.5371 203.768V203.656H80.1231ZM80.3368 203.656V203.768C80.3368 204.404 80.9957 204.867 81.9306 204.97L82.0953 204.6C81.2895 204.525 80.7463 204.164 80.7463 203.768V203.656H80.3368ZM78.9343 203.478V203.852H81.9439V203.478H78.9343ZM85.4029 203.3V205.673H85.8703V203.3H85.4029ZM85.6789 204.311V204.698H86.4446V204.311H85.6789ZM83.2748 205.842V207.321H85.8703V205.842H85.4073V206.216H83.7333V205.842H83.2748ZM83.7333 206.573H85.4073V206.951H83.7333V206.573ZM82.7004 203.688V204.062H85.0957V203.688H82.7004ZM83.8981 204.213C83.3104 204.213 82.9097 204.498 82.9097 204.93C82.9097 205.362 83.3104 205.647 83.8981 205.647C84.4813 205.647 84.882 205.362 84.882 204.93C84.882 204.498 84.4813 204.213 83.8981 204.213ZM83.8981 204.56C84.2186 204.56 84.4368 204.703 84.4368 204.93C84.4368 205.161 84.2186 205.304 83.8981 205.304C83.5775 205.304 83.3594 205.161 83.3594 204.93C83.3594 204.703 83.5775 204.56 83.8981 204.56ZM83.6665 203.265V203.892H84.1296V203.265H83.6665ZM89.1138 203.478C88.5039 203.478 88.0631 203.826 88.0631 204.329C88.0631 204.832 88.5039 205.184 89.1138 205.184C89.7237 205.184 90.1645 204.832 90.1645 204.329C90.1645 203.826 89.7237 203.478 89.1138 203.478ZM89.1138 203.861C89.4655 203.861 89.7193 204.044 89.7193 204.329C89.7193 204.618 89.4655 204.796 89.1138 204.796C88.7621 204.796 88.5128 204.618 88.5128 204.329C88.5128 204.044 88.7621 203.861 89.1138 203.861ZM88.9001 205.615V207.245H89.3676V205.615H88.9001ZM90.6898 203.3V207.37H91.1528V203.3H90.6898ZM87.8494 205.865C88.5751 205.86 89.5545 205.851 90.4583 205.678L90.4272 205.335C89.5456 205.468 88.5261 205.477 87.7915 205.477L87.8494 205.865ZM94.7898 203.3V205.762H95.2573V203.3H94.7898ZM94.1888 204.516V204.899H94.9857V204.516H94.1888ZM92.5861 205.958V207.321H95.2573V205.958H92.5861ZM94.7987 206.328V206.947H93.0446V206.328H94.7987ZM91.8915 203.692V204.066H94.2556V203.692H91.8915ZM93.0758 204.24C92.5193 204.24 92.1186 204.538 92.1186 204.97C92.1186 205.402 92.5193 205.696 93.0758 205.696C93.6323 205.696 94.0285 205.402 94.0285 204.97C94.0285 204.538 93.6323 204.24 93.0758 204.24ZM93.0758 204.591C93.3741 204.591 93.5833 204.734 93.5833 204.97C93.5833 205.201 93.3741 205.348 93.0758 205.348C92.773 205.348 92.5638 205.201 92.5638 204.97C92.5638 204.734 92.773 204.591 93.0758 204.591ZM92.8443 203.265V203.959H93.3073V203.265H92.8443ZM96.4323 205.161V205.54H99.2549V205.161H96.4323ZM95.9826 206.497V206.884H99.6689V206.497H95.9826ZM97.5854 205.33V206.635H98.0484V205.33H97.5854ZM96.4323 203.603V205.326H96.8953V203.981H99.2193V203.603H96.4323ZM102.694 204.244V204.627H103.438V204.244H102.694ZM102.694 205.491V205.874H103.438V205.491H102.694ZM104.106 203.3V207.37H104.551V203.3H104.106ZM103.3 203.376V207.174H103.736V203.376H103.3ZM101.991 203.616C101.461 203.616 101.118 204.168 101.118 205.059C101.118 205.954 101.461 206.506 101.991 206.506C102.525 206.506 102.868 205.954 102.868 205.059C102.868 204.168 102.525 203.616 101.991 203.616ZM101.991 204.053C102.271 204.053 102.445 204.418 102.445 205.059C102.445 205.7 102.271 206.065 101.991 206.065C101.71 206.065 101.541 205.7 101.541 205.059C101.541 204.418 101.71 204.053 101.991 204.053ZM106.207 203.634V204.302C106.207 205.081 105.788 205.865 105.138 206.159L105.419 206.546C106.149 206.19 106.589 205.286 106.589 204.302V203.634H106.207ZM106.296 203.634V204.302C106.296 205.25 106.736 206.118 107.453 206.457L107.729 206.083C107.088 205.798 106.674 205.05 106.674 204.302V203.634H106.296ZM108.054 203.296V207.374H108.522V203.296H108.054ZM113.15 203.296V207.374H113.617V203.296H113.15ZM111.449 203.599C110.844 203.599 110.403 204.155 110.403 205.032C110.403 205.909 110.844 206.47 111.449 206.47C112.059 206.47 112.5 205.909 112.5 205.032C112.5 204.155 112.059 203.599 111.449 203.599ZM111.449 204.022C111.805 204.022 112.05 204.4 112.05 205.032C112.05 205.669 111.805 206.052 111.449 206.052C111.093 206.052 110.848 205.669 110.848 205.032C110.848 204.4 111.093 204.022 111.449 204.022ZM114.579 203.683V206.372H116.488V203.683H114.579ZM116.034 204.053V205.998H115.037V204.053H116.034ZM117.245 203.296V207.374H117.713V203.296H117.245ZM119.493 203.91V204.48C119.493 205.175 119.07 205.936 118.443 206.225L118.71 206.595C119.409 206.261 119.867 205.375 119.867 204.48V203.91H119.493ZM119.591 203.91V204.48C119.591 205.353 120.05 206.176 120.758 206.492L121.016 206.123C120.379 205.856 119.961 205.152 119.961 204.48V203.91H119.591ZM118.589 203.705V204.093H120.864V203.705H118.589ZM121.341 203.3V207.37H121.808V203.3H121.341ZM122.556 206.51V206.893H126.242V206.51H122.556ZM124.159 205.682V206.666H124.622V205.682H124.159ZM122.988 203.585V203.959H125.338V204.502H122.997V205.629H123.46V204.872H125.801V203.585H122.988ZM122.997 205.437V205.816H125.895V205.437H122.997ZM127.643 203.959V204.333H129.628V203.959H127.643ZM128.64 204.565C128.132 204.565 127.758 204.957 127.758 205.513C127.758 206.07 128.132 206.457 128.64 206.457C129.152 206.457 129.521 206.07 129.521 205.513C129.521 204.957 129.152 204.565 128.64 204.565ZM128.64 204.957C128.911 204.957 129.107 205.179 129.107 205.513C129.107 205.851 128.911 206.065 128.64 206.065C128.368 206.065 128.172 205.851 128.172 205.513C128.172 205.179 128.368 204.957 128.64 204.957ZM130.67 203.3V207.37H131.115V203.3H130.67ZM130.091 204.988V205.366H130.817V204.988H130.091ZM129.806 203.385V207.183H130.243V203.385H129.806ZM128.413 203.416V204.191H128.871V203.416H128.413ZM134.458 203.3V205.687H134.926V203.3H134.458ZM134.792 204.315V204.698H135.496V204.315H134.792ZM133.612 205.767C132.78 205.767 132.255 206.065 132.255 206.568C132.255 207.071 132.78 207.37 133.612 207.37C134.44 207.37 134.966 207.071 134.966 206.568C134.966 206.065 134.44 205.767 133.612 205.767ZM133.612 206.141C134.173 206.141 134.507 206.288 134.507 206.568C134.507 206.84 134.173 206.991 133.612 206.991C133.047 206.991 132.713 206.84 132.713 206.568C132.713 206.288 133.047 206.141 133.612 206.141ZM131.907 205.037V205.415H132.232C133.118 205.415 133.595 205.393 134.129 205.282L134.08 204.903C133.559 205.014 133.1 205.037 132.232 205.037H131.907ZM131.907 203.594V205.29H132.37V203.973H133.715V203.594H131.907ZM138.414 203.723V203.875C138.414 204.355 137.835 204.818 137.038 204.925L137.216 205.29C138.129 205.152 138.819 204.596 138.819 203.875V203.723H138.414ZM138.543 203.723V203.875C138.543 204.596 139.229 205.152 140.146 205.29L140.32 204.925C139.527 204.818 138.944 204.355 138.944 203.875V203.723H138.543ZM138.436 205.847V207.37H138.899V205.847H138.436ZM136.843 205.584V205.963H140.52V205.584H136.843ZM137.176 203.532V203.906H140.173V203.532H137.176ZM140.938 206.479V206.862H144.624V206.479H140.938ZM142.527 205.531V206.595H142.99V205.531H142.527ZM142.514 203.55V203.857C142.514 204.48 141.864 205.09 141.054 205.228L141.25 205.615C142.176 205.433 142.919 204.725 142.919 203.857V203.55H142.514ZM142.599 203.55V203.857C142.599 204.729 143.342 205.433 144.273 205.615L144.469 205.228C143.658 205.09 143.008 204.489 143.008 203.857V203.55H142.599ZM146.067 203.91V204.48C146.067 205.175 145.644 205.936 145.016 206.225L145.283 206.595C145.982 206.261 146.44 205.375 146.44 204.48V203.91H146.067ZM146.164 203.91V204.48C146.164 205.353 146.623 206.176 147.331 206.492L147.589 206.123C146.952 205.856 146.534 205.152 146.534 204.48V203.91H146.164ZM145.163 203.705V204.093H147.438V203.705H145.163ZM147.914 203.3V207.37H148.382V203.3H147.914ZM150.104 205.357V206.323H150.572V205.357H150.104ZM150.336 203.554C149.704 203.554 149.245 203.955 149.245 204.529C149.245 205.103 149.704 205.504 150.336 205.504C150.959 205.504 151.422 205.103 151.422 204.529C151.422 203.955 150.959 203.554 150.336 203.554ZM150.336 203.95C150.701 203.95 150.968 204.177 150.968 204.529C150.968 204.881 150.701 205.108 150.336 205.108C149.966 205.108 149.699 204.881 149.699 204.529C149.699 204.177 149.966 203.95 150.336 203.95ZM151.823 203.3V207.37H152.29V203.3H151.823ZM152.152 204.939V205.326H152.887V204.939H152.152ZM149.143 206.519C149.842 206.524 150.772 206.519 151.622 206.368L151.587 206.025C150.768 206.136 149.801 206.136 149.08 206.141L149.143 206.519ZM154.425 203.608V203.986H156.197V203.608H154.425ZM154.99 204.534V205.549H155.449V204.534H154.99ZM156.014 203.608V203.839C156.014 204.111 156.014 204.471 155.917 204.992L156.371 205.041C156.473 204.52 156.473 204.115 156.473 203.839V203.608H156.014ZM156.954 203.3V206.354H157.426V203.3H156.954ZM157.225 204.587V204.974H157.964V204.587H157.225ZM154.79 206.911V207.289H157.555V206.911H154.79ZM154.79 206.078V207.027H155.258V206.078H154.79ZM154.225 205.753C154.933 205.753 155.894 205.736 156.736 205.584L156.705 205.25C155.885 205.366 154.897 205.379 154.18 205.379L154.225 205.753ZM159.892 204.404V204.778H160.76V204.404H159.892ZM159.865 205.424V205.798H160.747V205.424H159.865ZM161.348 203.3V207.37H161.797V203.3H161.348ZM160.524 203.398V207.174H160.96V203.398H160.524ZM159.611 203.799V203.888C159.611 204.859 159.228 205.611 158.289 206.176L158.556 206.506C159.669 205.847 160.061 204.903 160.061 203.799H159.611ZM158.494 203.799V204.177H159.781V203.799H158.494ZM163.87 205.687V207.321H165.312V205.687H164.881V206.145H164.306V205.687H163.87ZM164.306 206.488H164.881V206.964H164.306V206.488ZM166.029 205.655V205.98C166.029 206.381 165.802 206.804 165.312 207.004L165.544 207.356C166.123 207.12 166.385 206.55 166.385 205.98V205.655H166.029ZM166.132 205.655V205.98C166.132 206.586 166.385 207.129 166.973 207.356L167.209 207.004C166.715 206.826 166.492 206.408 166.492 205.98V205.655H166.132ZM165.464 204.217V204.6H166.523V204.217H165.464ZM164.529 203.47C163.919 203.47 163.469 203.857 163.469 204.413C163.469 204.974 163.919 205.362 164.529 205.362C165.139 205.362 165.588 204.974 165.588 204.413C165.588 203.857 165.139 203.47 164.529 203.47ZM164.529 203.852C164.885 203.852 165.139 204.075 165.139 204.413C165.139 204.752 164.885 204.979 164.529 204.979C164.173 204.979 163.914 204.752 163.914 204.413C163.914 204.075 164.173 203.852 164.529 203.852ZM166.319 203.3V205.455H166.786V203.3H166.319ZM167.988 204.467V204.841H170.775V204.467H167.988ZM167.507 205.33V205.709H171.193V205.33H167.507ZM167.988 203.447V204.654H168.451V203.447H167.988ZM167.957 206.898V207.276H170.797V206.898H167.957ZM167.957 206.078V207H168.42V206.078H167.957ZM173.569 203.91V204.48C173.569 205.161 173.15 205.927 172.527 206.225L172.794 206.595C173.479 206.257 173.938 205.357 173.938 204.48V203.91H173.569ZM173.662 203.91V204.48C173.662 205.313 174.103 206.163 174.788 206.492L175.051 206.123C174.428 205.834 174.032 205.112 174.032 204.48V203.91H173.662ZM172.678 203.705V204.093H174.891V203.705H172.678ZM175.291 203.3V207.37H175.759V203.3H175.291ZM175.652 204.903V205.29H176.391V204.903H175.652ZM177.686 205.678V206.662H178.145V205.678H177.686ZM178.982 205.673V206.657H179.436V205.673H178.982ZM176.702 206.51V206.893H180.389V206.51H176.702ZM177.134 203.585V203.959H179.485V204.498H177.143V205.629H177.606V204.867H179.948V203.585H177.134ZM177.143 205.428V205.807H180.041V205.428H177.143ZM183.683 203.3V205.486H184.15V203.3H183.683ZM181.493 205.678V207.321H184.15V205.678H183.687V206.118H181.951V205.678H181.493ZM181.951 206.484H183.687V206.947H181.951V206.484ZM181.956 203.483C181.332 203.483 180.874 203.87 180.874 204.431C180.874 204.988 181.332 205.379 181.956 205.379C182.579 205.379 183.033 204.988 183.033 204.431C183.033 203.87 182.579 203.483 181.956 203.483ZM181.956 203.87C182.321 203.87 182.579 204.093 182.579 204.431C182.579 204.77 182.321 204.992 181.956 204.992C181.59 204.992 181.328 204.77 181.328 204.431C181.328 204.093 181.59 203.87 181.956 203.87ZM187.787 203.3V207.37H188.25V203.3H187.787ZM185.13 203.692V206.216H185.593V203.692H185.13ZM185.13 205.94V206.341H185.477C186.109 206.341 186.763 206.297 187.467 206.15L187.413 205.758C186.732 205.896 186.082 205.94 185.477 205.94H185.13ZM191.674 203.296V207.374H192.141V203.296H191.674ZM192.034 204.859V205.246H192.773V204.859H192.034ZM189.154 205.989V206.377H189.483C190.222 206.377 190.765 206.354 191.389 206.243L191.34 205.851C190.739 205.963 190.205 205.989 189.483 205.989H189.154ZM189.154 203.683V206.167H189.617V204.062H191.046V203.683H189.154ZM193.543 207.062C193.735 207.062 193.886 206.911 193.886 206.702C193.886 206.488 193.735 206.341 193.543 206.341C193.347 206.341 193.2 206.488 193.2 206.702C193.2 206.911 193.347 207.062 193.543 207.062Z" fill="#BDBDBD"/>
<path d="M70.8047 179.76H202.62" stroke="#DFDFDF" stroke-width="0.667983"/>
<circle cx="202.384" cy="179.758" r="1.99383" fill="#FF5A56"/>
<circle cx="136.478" cy="179.758" r="1.99383" fill="#BDBDBD"/>
<circle cx="71.0134" cy="179.758" r="1.99383" fill="#BDBDBD"/>
<defs>
<filter id="filter0_d_3475_5251" x="24.802" y="9.85149" width="223.396" height="342.396" filterUnits="userSpaceOnUse" color-interpolation-filters="sRGB">
<feFlood flood-opacity="0" result="BackgroundImageFix"/>
<feColorMatrix in="SourceAlpha" type="matrix" values="0 0 0 0 0 0 0 0 0 0 0 0 0 0 0 0 0 0 127 0" result="hardAlpha"/>
<feOffset dy="2.0495"/>
<feGaussianBlur stdDeviation="4.09901"/>
<feComposite in2="hardAlpha" operator="out"/>
<feColorMatrix type="matrix" values="0 0 0 0 0 0 0 0 0 0 0 0 0 0 0 0 0 0 0.14 0"/>
<feBlend mode="normal" in2="BackgroundImageFix" result="effect1_dropShadow_3475_5251"/>
<feBlend mode="normal" in="SourceGraphic" in2="effect1_dropShadow_3475_5251" result="shape"/>
</filter>
<filter id="filter1_i_3475_5251" x="128" y="42" width="12" height="14" filterUnits="userSpaceOnUse" color-interpolation-filters="sRGB">
<feFlood flood-opacity="0" result="BackgroundImageFix"/>
<feBlend mode="normal" in="SourceGraphic" in2="BackgroundImageFix" result="shape"/>
<feColorMatrix in="SourceAlpha" type="matrix" values="0 0 0 0 0 0 0 0 0 0 0 0 0 0 0 0 0 0 127 0" result="hardAlpha"/>
<feOffset dy="2"/>
<feGaussianBlur stdDeviation="2"/>
<feComposite in2="hardAlpha" operator="arithmetic" k2="-1" k3="1"/>
<feColorMatrix type="matrix" values="0 0 0 0 0 0 0 0 0 0 0 0 0 0 0 0 0 0 0.25 0"/>
<feBlend mode="normal" in2="shape" result="effect1_innerShadow_3475_5251"/>
</filter>
<filter id="filter2_i_3475_5251" x="128" y="126" width="12" height="14" filterUnits="userSpaceOnUse" color-interpolation-filters="sRGB">
<feFlood flood-opacity="0" result="BackgroundImageFix"/>
<feBlend mode="normal" in="SourceGraphic" in2="BackgroundImageFix" result="shape"/>
<feColorMatrix in="SourceAlpha" type="matrix" values="0 0 0 0 0 0 0 0 0 0 0 0 0 0 0 0 0 0 127 0" result="hardAlpha"/>
<feOffset dy="2"/>
<feGaussianBlur stdDeviation="2"/>
<feComposite in2="hardAlpha" operator="arithmetic" k2="-1" k3="1"/>
<feColorMatrix type="matrix" values="0 0 0 0 0 0 0 0 0 0 0 0 0 0 0 0 0 0 0.25 0"/>
<feBlend mode="normal" in2="shape" result="effect1_innerShadow_3475_5251"/>
</filter>
<filter id="filter3_i_3475_5251" x="128" y="227" width="12" height="14" filterUnits="userSpaceOnUse" color-interpolation-filters="sRGB">
<feFlood flood-opacity="0" result="BackgroundImageFix"/>
<feBlend mode="normal" in="SourceGraphic" in2="BackgroundImageFix" result="shape"/>
<feColorMatrix in="SourceAlpha" type="matrix" values="0 0 0 0 0 0 0 0 0 0 0 0 0 0 0 0 0 0 127 0" result="hardAlpha"/>
<feOffset dy="2"/>
<feGaussianBlur stdDeviation="2"/>
<feComposite in2="hardAlpha" operator="arithmetic" k2="-1" k3="1"/>
<feColorMatrix type="matrix" values="0 0 0 0 0 0 0 0 0 0 0 0 0 0 0 0 0 0 0.25 0"/>
<feBlend mode="normal" in2="shape" result="effect1_innerShadow_3475_5251"/>
</filter>
</defs>
</svg>
