<svg width="148" height="65" viewBox="0 0 148 65" fill="none" xmlns="http://www.w3.org/2000/svg">
<path d="M33.5039 3.98823C24.3039 9.58823 21.6706 17.6549 21.5039 20.9882L35.5039 51.4883H73.5039C77.5039 51.4883 80.1706 50.1549 81.0039 49.4883L139.004 12.9883C143.671 10.6545 150.704 5.08728 141.504 1.48823C132.304 -2.11082 122.337 1.65529 118.504 3.98823C111.837 7.82117 97.4039 16.287 93.0039 19.487C88.6039 22.687 83.8372 23.487 82.0039 23.487H59.5039V17.487H82.5039C84.6706 17.487 89.0039 16.087 89.0039 10.487C89.0039 4.88704 84.6706 3.48704 82.5039 3.48704H65.5039C58.5039 3.48704 59.5039 2.98823 49.5039 1.48823C41.5039 0.288232 35.5039 2.6549 33.5039 3.98823Z" fill="#F8DAAF"/>
<path d="M0.693811 27.2666C-0.792952 24.3051 0.402518 20.6991 3.36397 19.2123L14.364 13.6899C17.3255 12.2031 20.9314 13.3986 22.4182 16.3601L39.6777 50.7388C41.1644 53.7003 39.969 57.3063 37.0075 58.793L26.0075 64.3155C23.046 65.8022 19.44 64.6068 17.9533 61.6453L0.693811 27.2666Z" fill="#5087FF"/>
</svg>
