<svg width="46" height="45" viewBox="0 0 46 45" fill="none" xmlns="http://www.w3.org/2000/svg">
<g filter="url(#filter0_d_2159_5593)">
<circle cx="23" cy="22" r="15" fill="white"/>
</g>
<g filter="url(#filter1_d_2159_5593)">
<path d="M22.9746 27.8687C21.8662 27.8687 21.0156 28.7189 21.0156 29.8266C21.0156 30.9344 21.8662 31.7846 22.9746 31.7846C24.0829 31.7846 24.9335 30.9344 24.9335 29.8266C24.9335 28.7189 24.0829 27.8687 22.9746 27.8687ZM22.9746 11.3809C21.892 11.3809 21.1445 11.8188 21.1703 12.9524L21.5827 24.7257C21.6085 25.782 22.2786 26.1426 22.9746 26.1426C23.6705 26.1426 24.3407 25.782 24.3665 24.7257L24.7789 12.9524C24.8047 11.8188 24.0572 11.3809 22.9746 11.3809Z" fill="#FFCB46"/>
</g>
<defs>
<filter id="filter0_d_2159_5593" x="0.764708" y="0.463571" width="44.4706" height="44.4706" filterUnits="userSpaceOnUse" color-interpolation-filters="sRGB">
<feFlood flood-opacity="0" result="BackgroundImageFix"/>
<feColorMatrix in="SourceAlpha" type="matrix" values="0 0 0 0 0 0 0 0 0 0 0 0 0 0 0 0 0 0 127 0" result="hardAlpha"/>
<feOffset dy="0.698864"/>
<feGaussianBlur stdDeviation="3.61765"/>
<feComposite in2="hardAlpha" operator="out"/>
<feColorMatrix type="matrix" values="0 0 0 0 1 0 0 0 0 0.801292 0 0 0 0 0.620833 0 0 0 1 0"/>
<feBlend mode="normal" in2="BackgroundImageFix" result="effect1_dropShadow_2159_5593"/>
<feBlend mode="normal" in="SourceGraphic" in2="effect1_dropShadow_2159_5593" result="shape"/>
</filter>
<filter id="filter1_d_2159_5593" x="19.833" y="10.7895" width="6.28327" height="22.7696" filterUnits="userSpaceOnUse" color-interpolation-filters="sRGB">
<feFlood flood-opacity="0" result="BackgroundImageFix"/>
<feColorMatrix in="SourceAlpha" type="matrix" values="0 0 0 0 0 0 0 0 0 0 0 0 0 0 0 0 0 0 127 0" result="hardAlpha"/>
<feOffset dy="0.591326"/>
<feGaussianBlur stdDeviation="0.591326"/>
<feComposite in2="hardAlpha" operator="out"/>
<feColorMatrix type="matrix" values="0 0 0 0 0 0 0 0 0 0 0 0 0 0 0 0 0 0 0.25 0"/>
<feBlend mode="normal" in2="BackgroundImageFix" result="effect1_dropShadow_2159_5593"/>
<feBlend mode="normal" in="SourceGraphic" in2="effect1_dropShadow_2159_5593" result="shape"/>
</filter>
</defs>
</svg>
